<?xml version="1.0" encoding="UTF-8"?><svg id="a" xmlns="http://www.w3.org/2000/svg" viewBox="0 0 1024 1024"><defs><style>.b{fill:#fff;}</style></defs><circle class="b" cx="512" cy="512" r="512"/><path d="M851.01,359.5c0-27.1-5.08-30.49-6.78-45.73-6.78-33.88-28.8-69.45-57.59-94.86-8.47-6.78-45.73-28.8-79.61-16.94-18.63,6.78-18.63,15.24-40.65,22.02-23.71,6.78-33.88-1.69-57.59,6.78-10.16,3.39-28.8,11.86-28.8,18.63s18.63,10.16,55.9,18.63c16.94,3.39,23.71,3.39,32.18,10.16h0c20.33,38.96,22.02,44.04,11.86,52.51-81.31,66.06-66.06,42.35-213.43,174.47-123.65,108.41-250.69,128.73-264.24,182.94,0,1.69-3.39,10.16,0,10.16s10.16-5.08,11.86-3.39c0,0,0,3.39,3.39,5.08,3.39,6.78,35.57-10.16,37.27-8.47,3.39,8.47-91.47,49.12-84.69,69.45,1.69,6.78,30.49-3.39,33.88,0,5.08,5.08-11.86,15.24-8.47,18.63,5.08,5.08,25.41,0,74.53-20.33,86.39-40.65,94.86-49.12,133.82-64.37,18.63-6.78,25.41,0,60.98-6.78,38.96-6.78,45.73-11.86,64.37-13.55,22.02,0,30.49,6.78,52.51,13.55h0v54.2c0,3.39,0,6.78,3.39,10.16,11.86,10.16,42.35,38.96,40.65,44.04-1.69,5.08-22.02-3.39-40.65,6.78-13.55,8.47-16.94,15.24-15.24,16.94,3.39,3.39,16.94-8.47,44.04-11.86,23.71-3.39,25.41,13.55,54.2,11.86,27.1,0,37.27-13.55,60.98-8.47,20.33,3.39,33.88,15.24,35.57,13.55,0-1.69-6.78-11.86-16.94-18.63-3.39-1.69-5.08-1.69-5.08-3.39,0-5.08,27.1-10.16,54.2-5.08,18.63,3.39,30.49,11.86,32.18,10.16,0-3.39-28.8-27.1-44.04-27.1,0,0-6.78,0-8.47-1.69v-5.08c3.39-8.47,22.02-13.55,33.88-8.47,6.78,3.39,8.47,8.47,10.16,8.47,0,0,0-11.86-8.47-16.94-10.16-10.16-30.49-5.08-42.35,0-11.86,5.08-15.24,11.86-28.8,13.55h-15.24c-16.94-10.16-33.88-35.57-37.27-40.65v-45.73c79.96-32.21,126.43-110.29,149.91-172.66,13.5-35.86,18.45-74.46,14.8-112.6-1.17-12.18-2.09-26.19-2.09-39.97ZM686.71,772.8v1.69c-3.39,3.39-11.86,1.69-16.94,3.39-8.47,0-15.24,3.39-20.33-1.69-10.16-11.86-23.71-23.71-32.18-37.27v-28.8h0c3.39-1.69,16.94-8.47,22.02-8.47,1.69,0,0,10.16,1.69,11.86,0,6.78,0,13.55,1.69,18.63,10.16,11.86,35.57,33.88,42.35,44.04l1.69-3.39Z"/></svg>