<?xml version="1.0" encoding="UTF-8"?><svg id="a" xmlns="http://www.w3.org/2000/svg" viewBox="0 0 149.67 149.67"><defs><style>.b{fill:#656565;}</style></defs><path class="b" d="M74.83,0C33.5,0,0,33.5,0,74.83s33.5,74.83,74.83,74.83,74.83-33.5,74.83-74.83S116.16,0,74.83,0ZM87.74,92.08c-7.69,6.87-15.01,12.28-21.97,16.21-5.95,3.35-10.39,5.02-13.32,5.02-1.51,0-2.8-.6-3.88-1.78-1.08-1.19-1.61-2.56-1.61-4.12,0-1.97,1.14-3.71,3.43-5.22,3.02-1.74,6.02-3.48,8.99-5.22,10.66-6.24,20.78-15.29,30.34-27.15-6.18-4.86-13.27-9.14-21.28-12.86-5.72-2.41-11.42-4.84-17.09-7.29-4.03-2.01-6.04-4.39-6.04-7.14,0-1.69.61-3.15,1.82-4.36s2.71-1.82,4.5-1.82c.92,0,2.04.23,3.36.69,14.87,5.22,27.9,11.89,39.06,20,6.87,4.95,10.3,9.2,10.3,12.78,0,4.95-5.54,12.37-16.61,22.26Z"/></svg>