<?xml version="1.0" encoding="UTF-8"?><svg id="a" xmlns="http://www.w3.org/2000/svg" viewBox="0 0 424.05 315.43"><defs><style>.b{fill:#f2e8cf;stroke:#e0d4b8;}.b,.c,.d,.e,.f{stroke-width:5px;}.b,.c,.d,.f{stroke-miterlimit:10;}.c,.e{fill:#bc4749;stroke:#a53f40;}.d{fill:#bb8a89;stroke:#a47776;}.e{stroke-linejoin:round;}.f{fill:#f0b470;stroke:#d89f63;}</style></defs><rect class="d" x="43.86" y="59.84" width="159.33" height="234.69" rx="15.33" ry="15.33" transform="translate(-70.36 81.98) rotate(-28.96)"/><rect class="f" x="141.19" y="2.5" width="159.33" height="234.69" rx="15.33" ry="15.33"/><rect class="b" x="220.86" y="59.84" width="159.33" height="234.69" rx="15.33" ry="15.33" transform="translate(123.39 -123.37) rotate(28.96)"/><path class="c" d="M295.27,189.83l1.17,4.06c2.99,10.39,13.83,16.39,24.22,13.41h0c10.39-2.99,16.39-13.83,13.41-24.22l-10.15-35.31-1.83-6.37-41.68,11.98c-10.39,2.99-16.39,13.83-13.41,24.22h0c2.99,10.39,13.83,16.39,24.22,13.41l3.38-.97"/><path class="e" d="M295.16,190.02l-.35.99c-3.43,9.68-3.68,20.19-.71,30.02h0s0,0,0,0c-6.18-7.52-14.99-12.4-24.65-13.64h0s0,0,0,0c9.9-2.71,18.68-8.5,25.06-16.55l.65-.82Z"/></svg>