<?xml version="1.0" encoding="UTF-8"?><svg id="a" xmlns="http://www.w3.org/2000/svg" viewBox="0 0 149.67 149.67"><defs><style>.b{fill:#656565;}</style></defs><path class="b" d="M74.83,0C33.5,0,0,33.5,0,74.83s33.5,74.83,74.83,74.83,74.83-33.5,74.83-74.83S116.16,0,74.83,0ZM98.59,48.33c-.78.74-2.75,2.09-5.9,4.05-9.38,5.68-19.41,13.38-30.07,23.1,6.68,6.36,13.36,11.97,20.05,16.83,3.57,2.48,7.14,4.96,10.71,7.44,2.93,2.06,4.39,4.26,4.39,6.59,0,3.75-1.97,5.63-5.9,5.63-3.02,0-8.88-3.39-17.57-10.17-17.07-13.19-25.61-21.96-25.61-26.32,0-3.3,3.32-7.97,9.95-14.02,5.31-4.81,11.6-9.65,18.88-14.5,9.24-6.18,15.06-9.28,17.44-9.28,4.03,0,6.04,1.88,6.04,5.63,0,1.92-.8,3.59-2.4,5.01Z"/></svg>