<?xml version="1.0" encoding="UTF-8"?>
<svg id="Layer_1" xmlns="http://www.w3.org/2000/svg" version="1.1" viewBox="0 0 84.5 84.6">
  <!-- Generator: Adobe Illustrator 29.3.1, SVG Export Plug-In . SVG Version: 2.1.0 Build 151)  -->
  <defs>
    <style>
      .st0 {
        fill: #fff;
      }

      .st1 {
        fill: #bc4749;
        stroke: #9e4749;
        stroke-linejoin: round;
      }
    </style>
  </defs>
  <g>
    <polygon class="st1" points="35.7 12.8 22.8 61.4 71.4 48.3 35.7 12.8"/>
    <polygon class="st1" points="35.7 12.8 71.4 48.3 74.7 9.7 35.7 12.8"/>
    <polygon class="st1" points="35.7 12.8 22.8 61.4 .5 29.8 35.7 12.8"/>
    <polygon class="st1" points="55.1 84.1 22.8 61.4 71.4 48.3 55.1 84.1"/>
    <polygon class="st1" points=".5 29.7 32.4 .5 35.7 12.7 .5 29.7"/>
    <polygon class="st1" points="74.7 9.7 35.7 12.8 32.4 .6 74.7 9.7"/>
    <polygon class="st1" points="55.1 84.1 84 52.8 71.4 48.3 55.1 84.1"/>
    <polygon class="st1" points="55.1 84.1 14.2 71.7 22.8 61.4 55.1 84.1"/>
    <polygon class="st1" points="74.7 9.7 71.4 48.2 84 52.8 74.7 9.7"/>
    <polygon class="st1" points=".5 29.8 22.8 61.5 14.2 71.8 .5 29.8"/>
  </g>
  <g>
    <path class="st0" d="M38.7,47c.8-.1,5-1.6,5.7-1.3.9.4.8,1.8-.3,2,0,0-6.5,1.8-6.5,1.8-5.7-.9,3.8-7.8,2.5-10.6-.5-2.1-3.6-1.9-4.1.1-.2.7,0,2.2-1,2.4-1.2.3-1.6-1.2-1.4-2.2.3-2.6,3.5-4.1,5.9-3.7,6.5,1.9.9,8.1-.9,11.5Z"/>
    <path class="st0" d="M54.2,38.2c3,10.7-9.4,10-9.5.2-1.1-7.6,8.7-7.4,9.5-.2ZM51.7,38.7c-1.1-6.3-6.5-5.1-4.2,1.2,1.2,6.6,6.5,5.1,4.2-1.2Z"/>
  </g>
  <path class="st0" d="M20.9,36.7c.3-.8,1.2-5.4,1.8-5.9.8-.7,1.6.3,1.2,1.2,0,0-1.8,6.8-1.8,6.8-3.2,4.8-3.6-6.9-6.2-7.3-1.9-.4-2.9,2.6-1.8,3.8.8.6,1.8,1.8.7,2.7-6.9.3.8-20,6-1.5Z"/>
  <g>
    <path class="st0" d="M53.7,21.9l4.9-4.9c-2.3-.1-4.6-1.4-2.4-2.3,1.5.6,3.6,1,5.2.6.8.2,1,1.2.3,1.8,0,0-6.2,6.2-6.2,6.2-1.2,1.5-3-.1-1.8-1.3Z"/>
    <path class="st0" d="M61.4,29.7l1-1c-1.1-1.2-6-5-1.6-5.2,7.7-.9,13.2-2.7,4.3,5.4,1.9,1.3.1,3.1-1.2,1.2-.4.4-1.2,1.5-1.8,1.4-.9,0-1.4-1.2-.6-1.9ZM61.2,25l2.5,2.4,3.1-3.2-5.6.7Z"/>
  </g>
  <path class="st0" d="M51.1,8.1c-2.1-1.3-5.9.6-8-.7-.3-.2-.4-2.5-.6-2.8.9-1.9,6.4,1.8,7.9,2.1,1.1-.3,4.4.5,1.5.6,3.1,1,1,1.4-.8.7ZM45,7.2l3.5-.3-3.8-1.7.4,1.9Z"/>
  <g>
    <path class="st0" d="M13.3,53.2v5.4c1.2-.4,2.2,2.3,1.1,1.7-1.3-.7-1.5,1.6-1.9-1.4,0-.5-.7-11.8.8-5.7Z"/>
    <path class="st0" d="M9.7,48.7c-3.5-4.7-2.8-5.9.6-.5,2.4,4.2-4,.7-1,5.9.9,1.3.6-1,1.2-.2.1.2.2.3.3.6.9,6-6.8-5.6-1.1-5.8Z"/>
  </g>
  <path class="st0" d="M78.7,37.5c.7,1.6.5,5.7-1.4,2.4-2.6-5.1-1.1-10.8,2.2-2.3,1.4,1.6,1.4,10.4-.3,4.8,0-.7.5.1.7,0,.5-1.7-.4-3-1.2-4.8ZM76.7,35.4c-.2.7,1.1,5,1.8,3.4.2-.8-1.1-5-1.8-3.4Z"/>
  <g>
    <path class="st0" d="M36.1,74.5l-5.8.2c3,.7,4.2,2.3,1.1,1.1-1.4-.9-3.9-.6-4.8-1.8.3-.3,12.4-.9,9.4.5Z"/>
    <path class="st0" d="M23.8,68.7c1.7-.3,9.6.8,7.3,3.2-2.7,1.8-16.4-2.3-7.3-3.2ZM25,69.6c-6.7.6,2.1,2.4,4.2,1.5,2.7-1-3.1-1.8-4.2-1.5Z"/>
  </g>
  <g>
    <path class="st0" d="M70.3,58.4l4.9-2.9c-.8-1,1.2-3.8,1.2-2.1-.2,1.8,2,1.1-.5,3-.6.2-10.7,6.9-5.6,2Z"/>
    <path class="st0" d="M70.9,62.8c.6,2.4-2.9,5.9-5.2,6.4-1.5-3.1,5-8.7,8.2-8.7,1,1.8-1.7,4.7-3.1,5.8-1.7.3,5.6-6,.1-3.4ZM66.7,66.5c-.5,2.5,3.6-1.4,3.4-2.5-.9-1-2.9,1.7-3.4,2.5Z"/>
  </g>
  <path class="st0" d="M47.3,67.5c-4.9-.3-3.3-6.2.7-6.6,3.7-1.7,7.9,2.7,3.9,5.3,4.2.5,2.3,5.4-1.1,5.7-3,1.3-7-1.9-3.6-4.4ZM50.6,62.7c-2.2-2-5.6,1.7-2.8,3.3,2,1,4.7-1.5,2.8-3.3ZM51.5,70c2.1-2-1.7-3.7-2.9-1.7-1.2,1.9,1.6,3,2.9,1.7Z"/>
  <g>
    <path class="st0" d="M16.8,18.5l3.4-5.3c-2.2,2.3-3.4,2.2-1.1.3,1.3-.7,2.4-2.9,3.6-3.1,0,.3-6.9,11.4-5.9,8.1Z"/>
    <path class="st0" d="M23.7,11.3c2.4-4,7.5-4.8,2,.2.8,1.7-3.3,5.4-5.2,5.5-.6-1.5,1.8-3.5,2.9-4.4-.3,0-.3-.5.2-1.3ZM24.3,13.7c1.4-2.7-2.5.7-2.5,1.8.2,1.2,2.1-1.2,2.5-1.8ZM26.4,9.2c-.5.1-2.9,2.6-1.5,2.4.6-.2,2.8-2.5,1.5-2.4Z"/>
  </g>
</svg>