<?xml version="1.0" encoding="UTF-8"?><svg id="a" xmlns="http://www.w3.org/2000/svg" viewBox="0 0 136.61 91.14"><defs><style>.d{fill:#fff;}.d,.e,.f{stroke:#fff;stroke-miterlimit:10;}.e{fill:none;}.f{fill:#3b6ea5;}</style></defs><g id="b"><path class="f" d="M68.19,14.6l10.24.16c.77.01,1.54-.13,2.23-.46,5.82-2.73,6.2-9.39,11.48-12.37,7.27-4.11,19.13,1.43,25.69,6.77,5.48,4.46,6.54,8.22,17.36,53.28.49,2.04,1.71,7.38.17,13.71-.28,1.15-3.32,13.04-11.45,14.75-1.36.29-3.07.33-5.38-.35-11.46-3.36-13.24-17.49-22.41-23.93-.87-.61-1.92-.93-2.98-.93h-24.72s-.22,0-.22,0h-24.72c-1.06,0-2.11.32-2.98.93-9.17,6.43-10.96,20.56-22.41,23.93-2.31.68-4.02.63-5.38.35-8.13-1.71-11.18-13.61-11.45-14.75-1.54-6.33-.32-11.67.17-13.71C12.24,16.91,13.3,13.16,18.78,8.69,25.33,3.36,37.19-2.18,44.46,1.93c5.28,2.98,5.66,9.64,11.48,12.37.7.33,1.47.47,2.23.46l10.24-.16"/></g><g id="c"><path class="e" d="M60.36,40.93h-5.45c-.42,0-.77-.34-.77-.77v-5.45c0-.42-.34-.77-.77-.77h-5.71c-.42,0-.77.34-.77.77v5.45c0,.42-.34.77-.77.77h-5.45c-.42,0-.77.34-.77.77v5.71c0,.42.34.77.77.77h5.45c.42,0,.77.34.77.77v5.45c0,.42.34.77.77.77h5.71c.42,0,.77-.34.77-.77v-5.45c0-.42.34-.77.77-.77h5.45c.42,0,.77-.34.77-.77v-5.71c0-.42-.34-.77-.77-.77Z"/><circle class="d" cx="34.15" cy="22.86" r="5.56"/><circle class="e" cx="34.15" cy="22.86" r="8.76"/><circle class="e" cx="58.41" cy="22.86" r="3.08"/><circle class="e" cx="77.5" cy="22.86" r="3.08"/><circle class="d" cx="102.34" cy="14.16" r="4.52"/><circle class="d" cx="112.08" cy="22.86" r="4.52"/><circle class="d" cx="102.34" cy="31.91" r="4.52"/><circle class="d" cx="93.29" cy="22.86" r="4.52"/><circle class="d" cx="86.26" cy="43.56" r="5.56"/><circle class="e" cx="86.26" cy="43.56" r="8.76"/></g></svg>