<?xml version="1.0" encoding="UTF-8"?>
<svg id="Layer_1" xmlns="http://www.w3.org/2000/svg" version="1.1" xmlns:xlink="http://www.w3.org/1999/xlink" viewBox="0 0 569.7 688.8">
  <!-- Generator: Adobe Illustrator 29.3.1, SVG Export Plug-In . SVG Version: 2.1.0 Build 151)  -->
  <defs>
    <style>
      .st0 {
        fill: #d78d5f;
      }

      .st1, .st2 {
        fill: #f2e8cf;
      }

      .st2 {
        stroke: #ffe8cf;
      }

      .st2, .st3, .st4 {
        stroke-linejoin: round;
      }

      .st5, .st4 {
        fill: #72908d;
      }

      .st6 {
        fill: #fff;
      }

      .st7 {
        font-size: 12.3px;
      }

      .st7, .st3, .st8, .st9 {
        fill: #bc4749;
      }

      .st7, .st8 {
        font-family: ArialRoundedMTBold, 'Arial Rounded MT Bold';
      }

      .st10 {
        fill: none;
      }

      .st11 {
        fill: #9f5441;
      }

      .st12 {
        fill: url(#radial-gradient);
      }

      .st13 {
        fill: url(#radial-gradient5);
      }

      .st14 {
        fill: url(#radial-gradient1);
      }

      .st15 {
        isolation: isolate;
      }

      .st3 {
        stroke: #9e4749;
      }

      .st16 {
        fill: #a7a3b2;
      }

      .st8 {
        font-size: 12.9px;
      }

      .st17 {
        fill: #f0b470;
      }

      .st4 {
        stroke: #45908d;
      }

      .st18 {
        fill: url(#radial-gradient6);
      }

      .st19 {
        fill: url(#radial-gradient2);
      }

      .st20 {
        fill: url(#radial-gradient4);
      }

      .st21 {
        fill: url(#radial-gradient3);
      }

      .st22 {
        clip-path: url(#clippath);
      }

      .st23 {
        opacity: .8;
      }
    </style>
    <radialGradient id="radial-gradient" cx="70.4" cy="514.4" fx="70.4" fy="514.4" r="87.9" gradientTransform="translate(0 690) scale(1 -1)" gradientUnits="userSpaceOnUse">
      <stop offset="0" stop-color="#ebd197"/>
      <stop offset=".2" stop-color="#e2c582"/>
      <stop offset=".6" stop-color="#cca84c"/>
      <stop offset="1" stop-color="#b48811"/>
    </radialGradient>
    <radialGradient id="radial-gradient1" cx="526.2" cy="314.5" fx="526.2" fy="314.5" r="46.2" gradientTransform="translate(0 690) scale(1 -1)" gradientUnits="userSpaceOnUse">
      <stop offset="0" stop-color="#ebd197"/>
      <stop offset=".2" stop-color="#e2c582"/>
      <stop offset=".6" stop-color="#cca84c"/>
      <stop offset="1" stop-color="#b48811"/>
    </radialGradient>
    <radialGradient id="radial-gradient2" cx="124.1" cy="427" fx="124.1" fy="427" r="31.3" gradientTransform="translate(0 690) scale(1 -1)" gradientUnits="userSpaceOnUse">
      <stop offset="0" stop-color="#ebd197"/>
      <stop offset=".2" stop-color="#e2c582"/>
      <stop offset=".6" stop-color="#cca84c"/>
      <stop offset="1" stop-color="#b48811"/>
    </radialGradient>
    <radialGradient id="radial-gradient3" cx="530.7" cy="209.7" fx="530.7" fy="209.7" r="23.2" gradientTransform="translate(0 690) scale(1 -1)" gradientUnits="userSpaceOnUse">
      <stop offset="0" stop-color="#ebd197"/>
      <stop offset=".2" stop-color="#e2c582"/>
      <stop offset=".6" stop-color="#cca84c"/>
      <stop offset="1" stop-color="#b48811"/>
    </radialGradient>
    <radialGradient id="radial-gradient4" cx="246.4" cy="478.7" fx="246.4" fy="478.7" r="10.8" gradientTransform="translate(0 690) scale(1 -1)" gradientUnits="userSpaceOnUse">
      <stop offset="0" stop-color="#ebd197"/>
      <stop offset=".2" stop-color="#e2c582"/>
      <stop offset=".6" stop-color="#cca84c"/>
      <stop offset="1" stop-color="#b48811"/>
    </radialGradient>
    <radialGradient id="radial-gradient5" cx="111.9" cy="204" fx="111.9" fy="204" r="10.8" gradientTransform="translate(0 690) scale(1 -1)" gradientUnits="userSpaceOnUse">
      <stop offset="0" stop-color="#ebd197"/>
      <stop offset=".2" stop-color="#e2c582"/>
      <stop offset=".6" stop-color="#cca84c"/>
      <stop offset="1" stop-color="#b48811"/>
    </radialGradient>
    <radialGradient id="radial-gradient6" cx="110" cy="157.3" fx="110" fy="157.3" r="22.5" gradientTransform="translate(0 690) scale(1 -1)" gradientUnits="userSpaceOnUse">
      <stop offset="0" stop-color="#ebd197"/>
      <stop offset=".2" stop-color="#e2c582"/>
      <stop offset=".6" stop-color="#cca84c"/>
      <stop offset="1" stop-color="#b48811"/>
    </radialGradient>
    <clipPath id="clippath">
      <path class="st10" d="M285.7,439.9c122.4-.6,122.2,68.1.8,70.8-121.5-.4-123.3-69.1-.8-70.8h0ZM203.6,474.3c.3,37.3,165.5,35.8,165-1.6,1.2-36-167-34.4-165,1.6ZM440.3,549.1l12.9,3.9c6-37.2-35.4-55.7-67.2-51.6-3.3,0-3.6.6-3.3,3.2,1.3,3.8-1.8,16.2,5.4,12,25.3-12.8,52.7,8.9,52.1,32.4h0ZM436.8,568.3c-8.9,18.8-25.8,34-51.7,46.1-4.6,2.6-3.3,15.6-3.6,18.6,6.1,0,3.6-7,12.5-11.3,24-9,43-29.7,53-50.3l-10.2-3.1h0ZM453.2,552.9l-12.9-3.9c-.3,6.4-1.4,13.7-3.5,19.3l10.2,3.1c3.3-6.7,5.4-13.1,6.2-18.5h0ZM387.8,516.6c-3.1,1.3-4.5,1.4-4.4-2.4.3-12-4.8-12.9,8.5-12.1,27-2.6,61.2,16.3,58.9,46.2-3.3,28-23.4,53.2-47.1,67.8-5.2,3-11.7,4.6-15.5,9.3-2.3,2.6-2.7,7.4-6.9,7.4-.2-.2-.2-.7-.2-1.1,0,.4-.1.8.2,1.2,4.2.3,5.1-4.7,7.5-7.1,4-4.6,10.4-5.7,15.7-8.4,8.7-4.5,16.4-10.6,23.2-17.7,40.2-38.4,34.8-97.2-28.4-99.4l-7.3.2c-3,.7-9.9-1.7-10,2.9.1,2.3.9,8.3,1.1,10.8,0,4,1.7,4,4.8,2.4h-.1ZM380.5,659.7h0c3.1-47.3,5.9-66.3,5.6-106.2-13.7,37.4-184.1,39.2-198.7,1.9.5,39.9,3.6,58.7,7.6,106M195.1,661.5h0c-1.6,31.8,187.3,30.1,185.3-1.8M386,544.6c-.7-24.2-3.3-48.3-7.2-72.2,1.7,46.7-186.3,48.5-185.5,1.8-3,21.4-5.1,43.1-5.6,64.7.9,32.2,178.5,51,198.2,5.9h.1ZM187.5,555.4h0c-3.2,37.4,202.4,35.4,198.5-1.9,0-2.5-.1-5.1-.2-7.5-16.4,38.5-184.3,30.5-198.3-5.6-.1,5-.2,10-.2,15h.2ZM380.5,659.7c-7.9,30-115,19.3-142.7,19.7-13.5-2.1-39.1-1.7-42.7-18.1-2.3,35.3,189.5,32.7,185.3-1.8h0ZM182.9,505.2c0,.6,1,.6.8,0-.2-.3-.8-.2-.8,0Z"/>
    </clipPath>
  </defs>
  <g id="stars">
    <path class="st12" d="M140.9,175.6s-49.3.8-60.3,5.1-11.9,97.3-12.1,97.3,1.5-89.2-8.2-97.3c-7.7-6.8-60.3-4.5-60.3-5.1s52.6,1.7,60.3-5.1c9.7-8.2,8.1-97.3,8.2-97.3.2,0,0,92.5,12.1,97.3s60.3,5.1,60.3,5.1Z"/>
    <path class="st14" d="M569.7,375.5c-50.3,3.6-38.8,1.4-44.4,48.7-5-47.1,7.8-46.3-42.6-48.7,50.4-2.4,37.5-1.6,42.6-48.7,5.5,47.3-5.6,45.1,44.4,48.7Z"/>
    <path class="st19" d="M153.7,263c-34.1,2.5-26.4.9-30.2,33-3.4-32,5.3-31.4-28.9-33,34.2-1.6,25.5-1.1,28.9-33,3.7,32.1-3.8,30.6,30.1,33h0Z"/>
    <path class="st21" d="M552.5,480.3c-19.1-.2-20.8,8.9-22.4,24.6-.4-17.2-.9-23.4-21.3-24.6,20.5-1.2,20.8-7.6,21.3-24.6,1.5,15.8,3.3,24.7,22.4,24.6Z"/>
    <path class="st20" d="M256.6,211.3c-8.7-.2-9.9,4.4-10.4,11.5,0-7.7-.8-11.2-9.9-11.5,9.2-.3,9.9-3.9,9.9-11.5.6,7.2,1.8,11.7,10.4,11.5Z"/>
    <path class="st13" d="M122.1,486c-8.7-.2-9.9,4.4-10.4,11.5,0-7.7-.8-11.2-9.9-11.5,9.2-.3,9.9-3.9,9.9-11.5.6,7.2,1.8,11.7,10.4,11.5Z"/>
    <path class="st18" d="M131.3,532.7c-24.5,1.7-19,.8-21.7,23.8-2.4-23,3.8-22.6-20.8-23.8,24.6-1.2,18.3-.8,20.8-23.8,2.7,23.1-2.7,22,21.7,23.8Z"/>
  </g>
  <g id="mug">
    <path class="st1" d="M193.1,475.8c.7,47,185.7,45.6,185.6-1.5,1.1-45.4-187.5-43.8-185.6,1.5Z"/>
    <path class="st1" d="M203.4,474.5c.3,37.6,165.4,36.3,165-1.4,1.3-36.3-166.9-34.9-165,1.4Z"/>
    <g>
      <path class="st1" d="M440,550.2c.6-23.7-26.7-45.6-52.1-32.8-7.3,4.2-4.1-8.4-5.4-12.1-.2-2.6,0-3.4,3.3-3.2,31.7-4.1,73.2,14.5,67.1,52.1l-12.9-3.9h0Z"/>
      <path class="st1" d="M437.4,552c.8-11.9-3.3-20.6-14.6-28.8-20.1-18.8-39.8,6.2-42-6.6,0-9.5-5.4-19.1,9.1-17.2,32.8-4.3,74.2,20.8,64.8,58.1l-17.4-5.6h0ZM390.1,504.5h-5.1c.3,3.7.6,7.4.9,11,27.3-14.3,55.9,8.1,56.7,32.8l8.3,2.5c3.6-31.6-33.4-49.9-60.7-46.3h0Z"/>
    </g>
    <g>
      <path class="st5" d="M436.4,569.6c-9,18.9-25.8,34.3-51.7,46.4-4.6,2.6-3.4,15.7-3.6,18.7,6.1,0,3.6-7.1,12.5-11.4,24-9.1,43-29.8,53.1-50.6l-10.2-3.1h0Z"/>
      <path class="st5" d="M380.5,637.1l-.9-.2c-2.5-3.5-.6-5.6-.7-10.6.8-4.5-1.1-8.5,4.5-12.5,26.8-12.7,42.5-27.3,51.7-47.3l15,4.5c-11.2,24.7-31.2,45.1-55.5,54.5-7.3,3-5.8,12.2-14.2,11.6h.1ZM383.4,634h0ZM381.3,632.2h0ZM437.7,572.6c-10.5,20.7-27.6,33.9-51.8,45.6-2.6,1.4-1.7,9.1-2.3,12,3.5-9.4,17.1-11.5,25.2-17.4,13.5-8.8,26.1-23,34.2-38.5l-5.4-1.6h0Z"/>
    </g>
    <g>
      <path class="st9" d="M446.7,572.7l-10.2-3.1c2.1-5.6,3.3-13,3.5-19.4l12.9,3.9c-.8,5.4-2.9,11.9-6.2,18.6h0Z"/>
      <path class="st9" d="M432.9,571c3.8-7,4.6-16.1,4.6-24.1l18.2,5.5c-.8,7.3-3.6,15.3-7.7,23.4l-15.1-4.7h0ZM442.3,553.5c-.5,4.9-1.2,9.9-2.6,14.5l5.7,1.7c2.3-4.9,3.9-9.7,4.7-13.8l-7.8-2.4h0Z"/>
    </g>
    <path class="st5" d="M194.7,663.1c-4-47.6-6.9-66.7-7.3-106.9,14.4,37.5,184.6,36.2,198.5-1.6.3,40.2-2.6,59.3-5.7,107h0"/>
    <path class="st5" d="M380.1,660.6c2.2,31.9-186.7,33.6-185.3,1.5h0"/>
    <path class="st1" d="M360,565.3c-37.6,16.7-172.7,5-172.6-24.8h0c.6-21.8,2.7-43.6,5.7-65.2h0c-.9,47.1,187.2,45.6,185.5-1.5h0c3.8,24.1,6.4,48.5,7.1,72.8-.6,7.7-8.6,13.5-25.7,18.7h0Z"/>
    <path class="st9" d="M187.4,541.2c13.7,36.2,181.7,44.8,198.3,5.9,0,2.5.1,5.1.2,7.6h0c3.8,37.6-201.7,39.3-198.5,1.6h0c0-5,0-10.1.2-15.1h-.2Z"/>
    <path class="st9" d="M380.3,659.6c-8,30.1-115.2,19.2-142.9,19.8-13.5-2.1-39.3-1.6-42.9-18.1-2.4,35.6,190,33.3,185.8-1.4v-.3Z"/>
    <g class="st22">
      <g>
        <g class="st23">
          <image id="image" class="st15" width="835" height="627" transform="translate(301.1 609) rotate(179.5) scale(.2 -.2)" xlink:href="coffee-mug-magic-one-haven-1.png"/>
          <image id="image1" data-name="image" class="st15" width="835" height="627" transform="translate(174.5 468) rotate(90.6) scale(.2 -.2)" xlink:href="coffee-mug-magic-one-haven-2.png"/>
          <image id="image2" data-name="image" class="st15" width="835" height="627" transform="translate(367 452) rotate(179.5) scale(.2 -.2)" xlink:href="coffee-mug-magic-one-haven-3.png"/>
          <image id="image3" data-name="image" class="st15" width="835" height="627" transform="translate(367.6 515.9) rotate(179.5) scale(.2 -.2)" xlink:href="coffee-mug-magic-one-haven-4.png"/>
          <image id="image4" data-name="image" class="st15" width="835" height="627" transform="translate(378 608.3) rotate(179.5) scale(.2 -.2)" xlink:href="coffee-mug-magic-one-haven-5.png"/>
        </g>
        <image id="image5" data-name="image" class="st15" width="835" height="627" transform="translate(457.9 497.8) rotate(179.5) scale(.2 -.2)" xlink:href="coffee-mug-magic-one-haven-6.png"/>
      </g>
    </g>
    <path class="st11" d="M203.3,473.1c.3,37.6,165.4,36.3,165-1.4,1.3-36.3-166.9-34.9-165,1.4h0Z"/>
  </g>
  <g id="coffee_splash">
    <g id="main">
      <g>
        <path class="st11" d="M469.4,361.1c9.8-3.2,19.3-5.4,26-16.6,2-3.9,4-10.3,2.3-11.3-2.6-.4-4.2,1.8-5.5,4-3.6,6.1-.3,6.2-7.3,11.4-.5.3-7.5,5.1-14.7,7.2-8.6,1.7-15.9,5-18.9,1.8-.4-1.2,2.5-6,4.5-8.3,44.2-50.5,62-97.1,63.3-105.6,4.8-30,17.2-108-34.7-169.3C385.2-28.5,222,15.9,181.9,85c-2.1,3.8-27.8,52.7-3.3,85.3,10.3,13.8,33.6,29.9,54.6,20.7,21.8-8.5,37-46.6,10.3-61.2-15.4-5.3-29.2,15.6-16.8,26.3,8.4,5.8,16.9-3.3,11-11.5-1.7-2.1-4.1-2.5-4.3-4.5.3-7.2,8.2-.3,9.2,1.5,14.4,18.7-12.7,36.5-27.8,21.3-10.4-9.7-7-30-1.5-42,10.5-22.9,34-35,53.3-41.4,52.4-23.7,136.3,3.2,138.8,72.7-.2,44.4-47.6,71.5-56.7,76.7-42.8,24.5-65.2,4.4-125.3,27.3-27.2,10.4-56.8,21.6-73.3,51.3-20.5,36.7-15.8,92,11.3,113.3,17.6,13.9,37.1,7.5,63.3,30.7,11.5,10.2,21.4,24.7,24.4,24.7h58.8c35.7.7,17.3,2.8,20.4-25.4,2.3-7.3,8.9-12.8,11.6-11.8,1.5.6,1.5,3.2,3.3,3.6,5.9-.8,6.4-8.4,3.3-12-.6-.7-2.5-2.5-8.2-2.2-20.5,3.2-26.4,14.1-30.5,26.3-11.1-35.5,56.5-44.1,63.8-42.7,26.8,1.5,44.6,10.9,71.7-4.9,11.9-8.8,14.6-14.2,12.5-26.1-.1-.5-1.7-11.8-4.7-8.1-3.3,4.4-5.2,16.6-12,19.8-25.2,12.2-32.8,8.3-60,7,29.2-8.7,54.6-16.4,69.8-38.1,0,0,11.9.8,20.6-.6h0Z"/>
        <path class="st11" d="M348.6,445.5c-8.8,1.3,2.3,11.9-14.1,13,.9,1.7,15.7,0,17.1-6.7.6-1.1.6-6-3-6.3Z"/>
        <path class="st11" d="M385.7,427.9c-11.9-3.8-32,3.9-37.1,13.8,5.7-3.8,18.2-9.7,30.1-5.2,3.3.9,3.8,2.1,6,3.8,12.6,5.6,12.4-10.6,1-12.3h0Z"/>
        <path class="st11" d="M198.9,457.1c-2.1,1.7-4.4,2.1-6.6.1-.9-1.5-.5-3.4-.6-5.4.2-2.5-1.4-3-3.1-2.2-5.8,3.7-3.1,14.3,5.2,13.5,1.4.1,6.4-1.1,7-4.1.5-1.2-.7-2.5-1.9-1.9h0Z"/>
        <path class="st11" d="M144.5,420.3c-10.1-9.1-3.9-21-16.7-26.3-13.2.6-9.8,12.6-3.8,18.2,13.2,12.2,22.5,17.8,31,18.9.4-.7-3.9-3.4-10.4-10.8h-.1Z"/>
        <path class="st11" d="M291.7,234c10.5-14-10.7-19-18.3-10.8-7.1,11,10.8,18.9,18.3,10.8Z"/>
        <path class="st11" d="M363.3,199.2c8.1,1,23.7-15.8,18.3-25.4-5.1-3.7-19.9,3.5-24.8,8.4-7,8.1-3.4,17.5,6.5,17Z"/>
        <path class="st11" d="M502.4,69.6c14.5,4.8,1.3,13.2,12.2,19.3,4.1,1.6,7.6-2.4,6.9-6.3-.2-4.4-3.6-7.5-6.2-9.8-4.8-6.6-19.8-6.8-22.1-4,0,.3,4.1-.9,9.1.8h.1Z"/>
        <path class="st11" d="M374.6,7.7c9.6-4-2.5-11.9-7-4.9-2,4.3,3.5,6.6,7,4.9Z"/>
      </g>
    </g>
    <g id="light_shadows">
      <path class="st17" d="M165.8,334.7c25.5-51,70.6-53.2,125.9-58.6,45.4-.8,95.7-23.2,121.6-40.1,24.1-16.8,35.6-40.1,36.7-39.6.7.4-5.9,15.6-13.6,24.8-26.3,33.4-83.7,49-124.1,59.6-70.8,11.6-104.3-.4-146.4,53.8h-.1Z"/>
      <path class="st17" d="M172.2,288.8c7-17.2,59.8-30.3,71.8-27.8-4.3,1.6-33.8,10-38.8,12.5-20.7,7.9-32.1,16.7-33,15.3Z"/>
      <path class="st17" d="M206.7,285.2c11.3-13.5,53.1-17.4,72.8-20,60.7-12.2,114.7-47.9,125.4-106.7,1.4-2.8-1.4-22.8-3.6-27,.3-.1,3.4,5.8,5.2,12,11.9,41.9-33.8,87.2-63.8,107.5-31,18-63.6,17.3-97.5,23.7-23.9,5.2-38,11.8-38.5,10.6h0Z"/>
      <path class="st17" d="M355.5,259.5c13.1-4.1,67.3-36.2,76.9-66.2,6.3-14.7,7.1-28.2,8.2-28,6.7,53.2-58.7,91.2-85.1,94.2Z"/>
      <path class="st17" d="M373.8,269.4c51.8-21.1,102.1-51.8,119.1-115.1-3.8,54-73.2,105.2-119.1,115.1Z"/>
      <path class="st17" d="M143.5,392.6c-17.6-41.8-1.1-88.5,55.9-99.9,12.6-2.4-8.7,5.7-21.8,16.9-30.7,24.6-38.2,54.7-34.1,83Z"/>
      <path class="st17" d="M271.7,470.4c-7-8.6-18.9-21-36.4-30.1-14.6-7.4-27-8.7-26.9-9.1,26.8-1.9,59.8,29.9,63.3,39.2Z"/>
      <path class="st17" d="M267.2,460.8c-20.6-36.4,40.1-76.1,65.7-78.2,0,.1-4.5,1.5-12.6,5.3-17.3,7.9-36.4,21.7-45.9,37.6-8.6,11.8-6.7,32.9-7.2,35.3h0Z"/>
      <path class="st17" d="M328.5,477.5c-5.3-.9-12.8-16.5-12.1-19.4.5-7.4,13.8-21.6,23.6-19.3,1.4.9,1.4,3.5,1.3,3.5-.2-.3-.8-1.9-1.9-2.1-5.3.5-7.6,4.6-10.3,9.2-5.7,8.8,4.5,25.6-.7,28h.1Z"/>
      <path class="st17" d="M283.1,470.1c-5-10.8,6.2-34.3,11.7-38.6,12.2-16,45.5-23.8,55-23,0,.2-2.1.7-5.1,1.6-40.1,11.1-55.7,25.3-61.6,60Z"/>
      <path class="st17" d="M344.9,457.9c2.9-1.6,4.2-4.3,5.8-7,.9-1.1,1.2,0,1,.7-.7,3.3-4.4,5.5-6.8,6.4h0Z"/>
      <path class="st17" d="M387.2,441.3c1.3.6,4.9,0,5.4-2.8.4-.9-.7-3.4.5-4.8,1.5-.8,2.3,2.2,2.3,3.2-.1,3.6-5.9,5.6-8.1,4.3h0Z"/>
      <path class="st17" d="M401.7,416.2c1.8.1,24-2.5,31.1-8,11.9-7.9,20.8-19.4,20.9-29.4-1.3-5.1-1-7.1,2.7-2.5,15.8,30.9-34.9,44.4-54.7,39.8h0Z"/>
      <path class="st17" d="M450.3,364.8c3.3-2.1,14.1-1.7,20.7-3.5,12.4-3.9,29.3-13.1,28-26.3-2.4-2-3.2,2.6-2.7,3.9-2.7,9.3-16.2,14.7-22.9,17.6-8.9,2.2-26.3,8.2-19.4-1.6,8.6-14.7,27.4-22.1,36.6-29.4,26.6-20,28.2-56.2,29.4-67.6-.3,0-1.3,4.2-1.8,6.1-9.3,30.6-13.5,49.3-49.7,70.2-6.3,4.3-10.7,6.9-15.2,12.7-6.6,11.1-12.1,21-23.8,28.2-4.3,3.2-8,5.3-29.6,16.1-12.8,6.4-21.1,8-20.9,8.5,30.7-3.6,58.1-22.7,71.3-35h0Z"/>
      <path class="st17" d="M373,379.5c17-.2,82.3-27.6,101.6-52.2,13.6-16.5,35.6-52.6,42.8-76,5.2-17.5,6.6-35.2,5.6-35.4-.5-.1-1.7,4-2.9,7.8-24.8,83-86.9,125-147.1,155.8h0Z"/>
      <path class="st17" d="M430.6,287.8c58.1-4.6,115.2-88.4,85.3-154.2-.3,0,.3,3.5.7,9.7,6.6,64-43.4,122.4-86,144.4h0Z"/>
      <path class="st17" d="M186.8,145.7c-21.4-94.5,111.4-123.7,163.6-112.2,37.1,5.8,73.2,20.4,35.3-.2-31.2-20.2-93.5-19.2-126.9-4-42.9,10.7-119,68.7-72,116.4h0Z"/>
      <path class="st17" d="M357.7,198.1c-1.7.4-4.4-2.9-5-6.3-.9-5.7,4.4-10.4,6.8-12.5,7.8-7,18.4-7.7,18.8-6.8-1.5,1.3-15.6,10-16,12.3-4.4,6.2-2.3,12.8-4.5,13.3h0Z"/>
      <path class="st17" d="M168.6,146.6c7,21.9,36.1,47.5,66.8,34.7,13.2-6.1,19.7-19.9,21.4-18.7,1.2.8-2,7.5-3.9,10.9-7.2,16.5-28.7,23.5-41.2,20.4-27.3-3.8-43-35-43.1-47.2h0Z"/>
    </g>
    <g id="medium_shadows">
      <path class="st0" d="M156.6,417.9c-34.2-37.6-3.3-95.7,29.2-114.4.1.1-6.9,4.8-13.3,13.8-15,25.5-27,66.6-15.9,100.5h0Z"/>
      <path class="st0" d="M184.2,432.4c-42.8-12.1-37-62.3-16.9-98.7,17.5-30.8,69.9-50.6,90.9-46.3.1.6-5.8,1.6-13.8,4.3-67,24.2-91.1,74.8-60.2,140.7h0Z"/>
      <path class="st0" d="M271.9,462.1c-7.3-13.9,2-35.9,15.3-44.8,22-20.6,86.8-21.9,118.7-38.2,30.5-14.4,55.8-43.7,37.1-17.3-13.8,17.1-48.6,34.8-85.3,39.5-47.3,2.2-72,15.7-85.8,60.8h0Z"/>
      <path class="st0" d="M200.9,319.5c14.3-14.8,49.2-29.4,81.6-34.5,92.7-22.2,59.1-6.9,121.3-38.2,63.6-31.6,76.5-127.4,19.4-167.9-70.9-53.7-248.6-13.3-219,76.2-25.7-51.8,12.1-87.7,53-104.8,61.6-25.2,131.3-17.3,188.7,12.3,85.7,39.1,46.6,141.9-20.9,180.8-6.8,7.6-83.9,40.7-102.1,42.6-38.6,10-90.6,17.8-122.1,33.6h.1Z"/>
      <path class="st0" d="M345,249.6c16.5-3.7,71.1-42.1,75-70.8,12.9-42.9-30.5-86.3-45.8-90.9,0,0,7.2,5.1,16.2,15.1,57.8,57.8-11.3,123.8-45.4,146.5h0Z"/>
      <path class="st0" d="M168.6,146.6c1.6-1.2,10,16.7,29.9,24.1,28.5,11,65.5-10.3,38.8-32.4,5.4-1.3,13.5,10.1,13.2,13.8,6.4,24.6-21.2,36.3-40.6,31.4-14.6-.8-41.1-23.1-41.2-36.9h0Z"/>
    </g>
    <g id="dark_shadows">
      <path class="st16" d="M237.6,316.7c.1.5,11.2-3.1,30.9-6,16.4-2.4,27.1-2.6,27.1-3.1s-11.1-1.2-23.8.2c-19.3,2.2-34.4,8.3-34.2,8.9h0Z"/>
      <path class="st16" d="M484.8,220.2c6.4-9.2,12.6-30.6,13.2-42.3,4.2,11.4-8.1,40.3-13.2,42.3Z"/>
      <path class="st16" d="M385.9,50.3c48.2,14.5,72.1,33,87.3,75.1-1.9-58.1-60-76.2-87.3-75.1h0Z"/>
      <path class="st16" d="M497.3,247.5c13.3-12.4,29-58.3,26.4-67.9-6.4,19.4-10.7,35.1-26.4,67.9h0Z"/>
    </g>
  </g>
  <g id="d_x26_d_dice">
    <g id="D20_Bottom_3">
      <g id="sides">
        <g>
          <polygon class="st3" points="229.8 346.2 216.9 394.8 265.5 381.7 229.8 346.2"/>
          <polygon class="st3" points="229.8 346.2 265.5 381.7 268.8 343.1 229.8 346.2"/>
          <polygon class="st3" points="229.8 346.2 216.9 394.8 194.6 363.2 229.8 346.2"/>
          <polygon class="st3" points="249.2 417.5 216.9 394.8 265.5 381.7 249.2 417.5"/>
          <polygon class="st3" points="194.6 363.1 226.5 333.9 229.8 346.1 194.6 363.1"/>
          <polygon class="st3" points="268.8 343.1 229.8 346.2 226.5 334 268.8 343.1"/>
          <polygon class="st3" points="249.2 417.5 278.2 386.2 265.5 381.7 249.2 417.5"/>
          <polygon class="st3" points="249.2 417.5 208.4 405.1 216.9 394.8 249.2 417.5"/>
          <polygon class="st3" points="268.8 343.1 265.5 381.6 278.1 386.2 268.8 343.1"/>
          <polygon class="st3" points="194.7 363.2 216.9 394.9 208.4 405.2 194.7 363.2"/>
        </g>
      </g>
      <path class="st6" d="M236.4,372c.6-.1,1.1-.4,1.4-.9.4-.5.5-1,.3-1.7s-.4-.9-.8-1.2-.9-.4-1.5-.2-.7.2-1,.4c-.2.2-.4.4-.5.6s-.2.5-.3.8c0,.3-.1.6-.2.9,0,.2-.1.3-.3.4s-.3.2-.6.3-.5,0-.8-.2-.4-.4-.5-.8,0-.7,0-1.1c.1-.4.3-.8.7-1.3s.8-.8,1.3-1.2,1.2-.6,1.9-.8,1.2-.2,1.8-.1,1.1.2,1.5.4.8.6,1.1.9.5.8.6,1.3.1,1.2,0,1.8c-.2.5-.5,1.1-.9,1.6.6.2,1.1.4,1.5.7s.8.6,1.1,1,.5.8.6,1.3.1,1.2,0,1.8c-.1.6-.4,1.2-.7,1.7s-.8,1-1.4,1.4c-.6.4-1.3.7-2,.8s-1.5.2-2.2,0-1.3-.4-1.8-.7c-.5-.3-.9-.7-1.2-1.1-.3-.4-.5-.8-.6-1.1s0-.7.2-1c.2-.3.5-.5.8-.6s.4,0,.6,0,.3.2.4.3c.5.8,1.1,1.4,1.6,1.8s1.1.5,1.8.3.8-.3,1.1-.6c.3-.3.6-.7.7-1.1.2-.4.2-.9,0-1.4-.2-.8-.5-1.3-1-1.7s-1.1-.4-1.9-.3-.3,0-.6.2-.4.1-.5.2c-.4,0-.7,0-.9,0s-.4-.4-.5-.7,0-.6.2-.8.5-.4,1-.5h.4Z"/>
      <g>
        <path class="st6" d="M248.6,393.1l1.7,6.6c1.2-1.3,2-2,2.5-2.2s.5,0,.7,0c.2.1.4.3.4.5s0,.5-.1.6-.4.4-.8.7c-.6.5-1.1.9-1.4,1.3-.3.4-.6.8-.8,1.3s-.4.7-.4.9-.2.2-.5.3-.6,0-.8-.1-.4-.4-.5-.7l-2.2-8.3c-.3-1,0-1.6.8-1.8s.6,0,.9,0,.4.4.5.8Z"/>
        <path class="st6" d="M237.1,400.1c.3-.5.6-.9,1-1.2s.9-.5,1.5-.7,1.1-.2,1.6-.1,1,.2,1.4.4c.4.2.8.5,1.1.9s.5.8.6,1.3.1,1,0,1.5-.3,1-.6,1.4-.7.8-1.2,1.1-1,.6-1.7.7-1.4.2-2,.2-1.2-.3-1.7-.6-.9-.8-1.3-1.4-.7-1.3-.9-2.1-.3-1.8-.3-2.5.2-1.4.5-2c.3-.6.7-1.1,1.2-1.5s1.2-.7,1.9-.9,1.4-.2,2-.1,1.1.3,1.5.6.6.6.7.9,0,.4-.1.6-.3.3-.6.4-.5,0-.7,0-.4-.2-.6-.4c-.2-.3-.5-.4-.8-.5s-.7-.1-1,0-.6.2-.9.5-.4.5-.6.8c-.3.6-.3,1.6,0,2.9ZM237.9,402.3c0,.3.2.6.4.9s.4.5.6.6.5.3.8.3c.3,0,.6,0,.9,0,.5-.1.9-.5,1.2-.9s.3-1.1.2-1.7-.5-1.1-1-1.4-1-.3-1.6-.2-.7.3-.9.5c-.3.2-.5.5-.6.9-.1.4-.1.7,0,1.1Z"/>
      </g>
      <path class="st6" d="M227.8,405.6l-6.3.6c2.2.7,3.5,1.2,3.9,1.4s.3.2.3.4c0,.1,0,.2-.3.2s-.5,0-.8,0-.7-.2-1.3-.5c-.9-.3-1.6-.6-2.3-.8-.7-.2-1.3-.4-1.9-.5s-1-.2-1.2-.3-.4-.1-.6-.3-.4-.3-.4-.4.2-.2.5-.2l8-.8c.9,0,1.7,0,2.4.5s.5.3.5.5-.2.2-.6.3Z"/>
      <path class="st6" d="M207.9,393.3l-3-4.1c-.3-.4-.5-.7-.6-1s-.2-.6-.2-.9,0-.3.2-.4.3-.2.4-.2c.2,0,.3-.2.5-.5s.3-.6.4-1.1c0-.2,0-.4,0-.6s0-.4,0-.7,0-.5,0-.7c0-.3,0-.5.2-.5s.2.1.4.4.3.5.5.9.2.7.2,1,0,.6,0,.9-.1.7-.3,1.1-.3.7-.5,1c-.2.3-.5.5-.8.7l2.4,3.3c.3.3.4.7.6,1,.1.3.2.6.2.9s0,.4-.1.3-.3-.3-.5-.6Z"/>
      <g>
        <path class="st6" d="M215.1,374.4l-5.7-1.5c.5,1.5.7,2.4.6,2.9s-.2.4-.4.5c-.2.1-.4.2-.6.1s-.4-.2-.4-.4-.1-.5-.2-.9c0-.7-.2-1.2-.4-1.6-.2-.4-.4-.8-.6-1.2s-.4-.6-.5-.7,0-.3,0-.5.2-.5.4-.6.5-.1.8,0l7.2,1.8c.8.2,1.2.7,1,1.4s-.2.5-.4.7-.5.2-.8,0Z"/>
        <path class="st6" d="M208.6,365.1l1.3-5c.1-.5.3-.8.5-1s.4-.2.7-.2.4.2.6.6.5.7.7,1.1c.3.4.6.9,1.1,1.3s1,1,1.7,1.4c.3.2.6.4.8.5s.5.2.8.4.6.3.8.4c.4.2.7.4.8.7s.1.5,0,.8-.2.5-.5.7-.5.2-.9,0-.6-.2-1-.5-.9-.6-1.5-1.1-1.1-1-1.7-1.7c-.6-.6-1.1-1.3-1.6-2.2l-1,4c-.1.4-.3.7-.4.9-.2.2-.4.2-.7.2s-.4-.2-.5-.5,0-.6.1-1Z"/>
      </g>
      <g>
        <path class="st6" d="M212.5,351l2.2-4.3c-1.3,1.1-2.2,1.7-2.5,1.9s-.3,0-.4,0c0,0,0-.1,0-.3s.2-.3.4-.4.4-.3.8-.6c.6-.4,1.1-.8,1.4-1.1.4-.3.8-.7,1.1-1s.6-.6.7-.7.2-.2.4-.3.3-.1.4,0,0,.2,0,.4l-2.8,5.4c-.3.6-.8,1.1-1.3,1.3s-.4.1-.5,0,0-.2,0-.5Z"/>
        <path class="st6" d="M224.4,343.5c-.3.5-.5,1-.8,1.4s-.6.8-1,1.2c-.5.5-1,.9-1.5,1.3s-1.1.7-1.6,1-1.1.4-1.4.3c-.3,0-.5-.3-.5-.6,0-.2,0-.5.2-.7s.3-.6.4-1,.5-.9.8-1.3.5-.8.8-1.1c.5-.6,1-1.1,1.6-1.5.6-.4,1.2-.8,1.8-1.1s.7-.3,1-.4.5,0,.6,0,.2.2.2.5c0,.4-.2,1-.7,2ZM222.8,344.1c.3-.6.5-1,.6-1.4s.1-.5,0-.6-.3,0-.7.1c-.5.2-1,.6-1.4,1.1s-.9,1.2-1.3,2.1-.5,1.1-.6,1.4-.1.6,0,.7.3,0,.7,0,.7-.4,1-.7.6-.7.9-1.1.6-.9.9-1.5Z"/>
      </g>
      <path class="st6" d="M234.4,339.2c-.4-.2-.6-.4-.7-.6,0-.2.1-.4.5-.5.4-.1,1-.3,1.8-.3s1.4,0,2,0,1.3,0,1.8.1,1.1.2,1.5.3.8.2,1.1.4.6.4.6.5-.2.3-.6.5c.6,0,1.2,0,1.8.2s1,.2,1.5.3c.4.1.8.3,1.2.4.5.2.8.5.8.7s-.1.4-.6.6-1.2.3-2.1.3-1.9,0-2.8,0-1.8-.2-2.5-.3-1.4-.4-1.9-.6c-1.1-.5-1.1-.9,0-1.2-1.6,0-2.8-.3-3.6-.7ZM244.7,340.6c-.3-.1-.7-.3-1.1-.4s-.9-.2-1.3-.2-.9,0-1.3,0c-.6,0-1,.1-1.1.3s0,.4.5.6.7.3,1.1.4.9.2,1.3.2.9,0,1.3,0,.7,0,.9-.2.3-.2.2-.3-.2-.3-.6-.4ZM237.4,338.3c-.5,0-.9.1-1,.3s0,.3.4.5.8.3,1.4.4,1.1.1,1.7,0,.5,0,.7,0c.2,0,.3,0,.3-.2,0,0,0-.1,0-.2s-.2-.2-.4-.2-.5-.2-.9-.3-.7-.1-1.1-.2-.8,0-1.1,0Z"/>
      <g>
        <path class="st6" d="M247.5,355.1l5-4.9c-1.8-.4-2.8-.7-3.2-1.1s-.3-.4-.3-.6c0-.3,0-.5.2-.6s.4-.3.6-.2.6.2,1,.4c.7.3,1.3.5,1.9.6.5,0,1.1,0,1.6,0s.8,0,1,0,.3.1.5.3.3.5.3.8-.2.6-.4.8l-6.3,6.2c-.7.7-1.4.8-1.9.2s-.4-.5-.4-.8.1-.6.4-.9Z"/>
        <path class="st6" d="M257.4,357.8c.6,0,1.1,0,1.6.3s.9.5,1.3.9.7.8.9,1.3c.2.5.3.9.3,1.4s0,1-.3,1.4-.5.9-.8,1.2c-.5.5-1.1.8-1.8,1-.7.1-1.4,0-2.1-.1-.7-.2-1.4-.7-2-1.3s-1.1-1.4-1.3-2.3-.1-1.6.2-2.5c.3-.8.9-1.7,1.7-2.5s1.4-1.2,2.1-1.6,1.4-.6,2-.6,1.3,0,1.9.3,1.2.7,1.7,1.2.9,1.1,1.1,1.7c.2.6.3,1.1.2,1.6,0,.5-.2.8-.5,1.1s-.3.2-.6.2-.5-.1-.7-.3-.3-.4-.3-.6,0-.5,0-.7c.1-.3.1-.6,0-1s-.2-.6-.5-.9-.5-.4-.8-.5c-.3-.1-.7-.1-1-.1-.7,0-1.6.6-2.6,1.5ZM255.7,362.9c.4.4.9.6,1.5.6s1.1-.3,1.6-.8.6-.7.7-1,.1-.7,0-1.1-.3-.7-.5-.9-.6-.4-.9-.6-.7-.1-1.1,0c-.4,0-.7.3-1,.6-.5.5-.8,1-.8,1.7s.2,1.1.6,1.6Z"/>
      </g>
      <path class="st6" d="M272.2,370.7c.1.7.2,1.3.3,1.9s0,1.2,0,1.8-.1,1-.2,1.4c-.1.4-.2.6-.4.7s-.3.2-.5,0-.4-.3-.6-.6c-.3-.5-.5-1.1-.7-1.8-.2-.8-.3-1.6-.4-2.5,0-.9,0-1.8,0-2.6s.2-1.7.4-2.1.5-.6.8-.4c.3.2.7.6,1.2,1.4s.7,1.3,1,2,.5,1.5.7,2.2.3,1.5.3,2.3,0,1.5,0,2.3-.1,1.3-.3,1.7c-.1.4-.3.6-.5.7-.2,0-.3,0-.5-.3s-.1-.4-.2-.6,0-.6,0-.9,0-.4.1-.6.2-.2.3,0c.1,0,.2,0,.3-.2s.2-.4.2-.8,0-.7,0-1.1c0-.4-.1-.8-.2-1.2-.2-.8-.5-1.7-1.1-2.6ZM270.2,370c0,.6,0,1.2.1,1.9s.3,1.2.6,1.7.3.5.5.5.3,0,.3-.2.1-.5.2-.9,0-.8,0-1.2-.1-.9-.2-1.3c-.1-.4-.2-.8-.4-1-.3-.4-.5-.6-.7-.5s-.3.5-.4,1.1Z"/>
      <path class="st6" d="M264.4,396.4c-.1-.2-.2-.4-.2-.8s.2-.8.4-1.3.5-1,.8-1.5.7-1,1.1-1.5c.4-.5.8-.9,1.2-1.2s.8-.7,1.2-.9.7-.3,1-.4.5,0,.6.3.1.5,0,.9-.2.9-.5,1.5-.7,1.4-1.1,2-.9,1.3-1.4,1.8-1.1,1.1-1.7,1.6-1.3.9-1.9,1.3-1.4.7-1.8.8-.8,0-1,0c-.2-.2-.3-.5-.2-.9s.2-1,.5-1.7.7-1.4,1.1-2,.8-1.2,1.2-1.6.7-.7,1-.9.3,0,.3,0,0,.3,0,.5-.2.5-.4.7-.4.5-.6.7c-.3.3-.6.6-.8.9s-.5.7-.6,1-.2.6-.2.8,0,.4.2.4c.2.1.9,0,1.9-.6ZM266.2,395.2c.3-.2.5-.3.8-.6s.5-.5.8-.8.5-.6.7-.9c.2-.3.4-.6.5-.9.2-.5.3-.9,0-1s-.5-.1-1,.2-1,.7-1.5,1.2-.8,1.1-1,1.6-.2.6-.2.8c0,.2,0,.4.2.4.2,0,.4,0,.7-.2Z"/>
    </g>
    <g id="D20_Middle_16">
      <g id="sides1">
        <polygon class="st2" points="354.2 298.6 315.6 330.9 362.9 348.2 354.2 298.6"/>
        <polygon class="st2" points="354.2 298.6 362.9 348.2 387.8 318.5 354.2 298.6"/>
        <polygon class="st2" points="354.2 298.6 315.6 330.9 315.6 292.2 354.2 298.6"/>
        <polygon class="st2" points="328.9 368 315.6 330.9 362.9 348.2 328.9 368"/>
        <polygon class="st2" points="315.7 292.1 358.6 286.6 354.2 298.5 315.7 292.1"/>
        <polygon class="st2" points="387.8 318.5 354.2 298.6 358.5 286.7 387.8 318.5"/>
        <polygon class="st2" points="328.9 368 370.6 359.1 362.9 348.2 328.9 368"/>
        <polygon class="st2" points="328.9 368 302.7 334.4 315.6 330.9 328.9 368"/>
        <polygon class="st2" points="387.8 318.5 362.9 348.1 370.6 359.1 387.8 318.5"/>
        <polygon class="st2" points="315.6 292.2 315.6 330.9 302.7 334.4 315.6 292.2"/>
      </g>
      <g id="numbers1">
        <path class="st9" d="M332.1,349.9c-3.8-3.1.9-6.9,4.4-5,4,.8,4.9,6.8.1,6.6,3.1,2.8-1.3,5.7-4.2,4-3.2-.7-4.7-5.6-.4-5.7h.1ZM334.1,354.4c2.9-.5.7-4-1.4-3.1-2.1.8-.4,3.4,1.4,3.1ZM337.6,347.9c-.6-2.8-5.6-1.8-4.2,1.1,1.1,1.9,4.7,1.5,4.2-1.1Z"/>
        <text class="st8" transform="translate(313.8 323.7) rotate(-90.6) scale(1.1 .6) skewX(35.4)"><tspan x="0" y="0">14</tspan></text>
        <g>
          <path class="st9" d="M336.9,329l2.8-7.5c-1.8.6-2.9.7-3.4.6s-.4-.3-.5-.5c-.1-.3-.1-.5,0-.7s.3-.5.5-.5.6-.1,1.1-.2c.8,0,1.4-.2,2-.4.5-.2,1-.5,1.5-.8s.8-.5.9-.6.3,0,.6,0,.5.3.6.6,0,.6,0,1l-3.5,9.4c-.4,1.1-1,1.5-1.7,1.2s-.6-.3-.7-.6,0-.7,0-1.1Z"/>
          <path class="st9" d="M347.2,326.7c.5-.3,1.1-.5,1.6-.5s1.1,0,1.6.2,1,.5,1.3.8c.4.4.7.8.9,1.3s.3,1,.3,1.6,0,1.1-.3,1.6c-.3.8-.7,1.4-1.3,1.9-.6.5-1.3.8-2,.9-.8.1-1.5,0-2.4-.3s-1.6-.9-2.1-1.6-.8-1.6-.8-2.6c0-1,.2-2.2.7-3.4s.8-1.9,1.3-2.7,1.1-1.3,1.7-1.7,1.2-.6,1.9-.7,1.4,0,2.1.3,1.3.6,1.7,1.1c.4.5.7,1,.8,1.5.1.5.1.9,0,1.3s-.2.4-.5.5-.5.1-.8,0-.4-.2-.6-.5-.2-.5-.2-.8c0-.4-.1-.7-.3-1s-.5-.5-.8-.7-.6-.1-1,0c-.4,0-.7.2-1,.4-.6.4-1.2,1.4-1.9,2.9ZM347.5,332.6c.6.2,1.1.1,1.6-.2s.9-.8,1.2-1.6.3-1,.2-1.4-.2-.8-.4-1.1-.5-.5-.9-.6-.7-.2-1.1,0-.7.2-1,.5c-.3.3-.6.6-.7,1.1-.3.7-.3,1.4-.1,2.1s.6,1.1,1.2,1.3Z"/>
        </g>
        <g>
          <path class="st9" d="M318.8,348.6l-1.1-3c-.1-.3-.1-.5,0-.6s.2-.1.4,0,.3.2.5.4.3.4.4.6l1.6,4.2c.1.3.1.5,0,.6s-.2.1-.4,0-.3-.2-.5-.4-.4-.4-.6-.5c-.7-.7-1.2-1.4-1.7-1.9s-.8-.9-1-1.2c-.3-.4-.6-.8-.9-1s-.5-.5-.8-.7c-.2-.2-.5-.3-.7-.4s-.4-.1-.5,0c-.1,0-.2.1-.2.3,0,.2,0,.4.1.6.2.5.5,1,1,1.4,0,0,.2.2.5.4s.5.4.6.5c.2.2.3.4.4.6s0,.3,0,.4-.2,0-.4,0-.5-.3-.8-.5-.6-.5-.9-.8c-.3-.3-.6-.7-.8-1.1-.3-.4-.5-.9-.7-1.4s-.3-1.1-.3-1.4c0-.2,0-.4.2-.5s.3-.2.5-.2.4,0,.7.2c.4.2.8.5,1.3.9.4.4.8.7,1.1,1.1s.7.9,1.4,1.6,1.1,1.3,1.4,1.6c.1.1.3.3.4.4Z"/>
          <path class="st9" d="M312.3,336.7c.6.2,1,.5,1.5.7s.8.6,1.3.9c.5.4.9.9,1.3,1.4s.7,1,.8,1.5.3,1,.2,1.4c-.1.3-.4.5-.8.5-.2,0-.5,0-.8-.1s-.7-.2-1.1-.4-1-.5-1.4-.7-.8-.5-1.2-.8c-.6-.4-1.1-.9-1.5-1.5-.4-.5-.7-1.1-1-1.7s-.2-.7-.2-1,0-.5.2-.6.3-.2.6-.3c.4,0,1.2.2,2.2.6ZM312.8,338.2c-.6-.3-1.1-.5-1.5-.5s-.6,0-.7,0-.1.3,0,.7c.2.5.6,1,1.1,1.4s1.3.8,2.2,1.2,1.1.5,1.5.6.6,0,.8,0,.1-.3,0-.7-.3-.7-.6-1-.7-.6-1.1-.8-1-.5-1.6-.8Z"/>
        </g>
        <path class="st9" d="M325.3,306.5c0-.6.2-1.1.5-1.5s.6-.8,1.1-1.2.9-.6,1.4-.8c.5-.2.9-.2,1.4-.2s.9.1,1.3.4.8.5,1.1.9c.4.5.7,1.1.7,1.8,0,.7,0,1.3-.4,2-.3.7-.8,1.3-1.5,1.8s-1.6,1-2.4,1.1-1.6,0-2.4-.3c-.8-.4-1.5-1-2.2-1.9s-1-1.4-1.3-2.1-.4-1.4-.4-2,.2-1.2.5-1.8.8-1.1,1.4-1.6,1.2-.8,1.8-1c.6-.2,1.1-.2,1.6-.1.4,0,.8.3,1,.5s.2.4.1.6-.2.4-.4.6-.4.2-.7.3-.5,0-.7-.1c-.3-.1-.6-.2-.9-.1s-.7.2-1,.4-.4.4-.6.8c-.1.3-.2.6-.2,1,0,.7.4,1.5,1.1,2.6ZM329.9,308.6c.5-.4.7-.8.8-1.4s-.1-1.1-.5-1.6-.6-.6-.9-.7-.7-.2-1,0-.7.2-1,.5-.5.5-.7.8-.2.7-.2,1c0,.4.2.7.4,1,.4.5.9.8,1.5.9s1.1,0,1.6-.5Z"/>
        <text class="st7" transform="translate(334.1 292.2) rotate(12.4) scale(1.5 .6) skewX(-28.2)"><tspan x="0" y="0">9</tspan></text>
        <g>
          <path class="st9" d="M364.2,301.5l-.7-4.1c-.6.2-1.1.2-1.3,0s-.2-.2-.3-.3c-.1-.2-.2-.3-.2-.4s0-.2,0-.3.2,0,.4,0c.3,0,.6,0,.7,0,.2,0,.3-.2.4-.3s.2-.2.2-.3.1,0,.3,0,.3.2.4.4.2.4.2.6l.9,5.2c.1.6,0,.8-.4.6s-.3-.2-.5-.4-.2-.4-.3-.6Z"/>
          <path class="st9" d="M370.1,302.8c-.1.1-.3.2-.5.2s-.5-.1-.7-.3-.5-.4-.8-.6-.5-.5-.7-.8c-.2-.3-.4-.6-.5-.9s-.2-.6-.3-.9,0-.6,0-.8.2-.4.3-.5.4-.1.6,0,.5.2.8.3.7.5,1,.8.6.7.8,1,.5.8.6,1.3.3,1,.4,1.5.1,1.1.1,1.4-.1.7-.3.8c-.2.2-.4.3-.6.2s-.6-.2-1-.4-.7-.5-1-.8-.5-.6-.7-.9-.3-.6-.3-.8,0-.2,0-.3.2,0,.3,0,.2.2.4.3.2.3.3.5c0,.2.2.4.4.6s.3.3.5.5.3.1.4.1.2,0,.3-.2c.1-.2.2-.7,0-1.5ZM369.7,301.4c0-.2,0-.4-.2-.6s-.2-.4-.3-.6-.2-.4-.4-.5c-.1-.2-.3-.3-.5-.4-.3-.2-.5-.2-.6,0s-.2.4-.1.8.2.8.5,1.1.5.6.8.8.3.2.5.1c.1,0,.2,0,.3-.2,0-.1,0-.3,0-.6Z"/>
        </g>
        <path class="st9" d="M370.6,321.3c0,.5.3,1,.6,1.3.3.3.8.5,1.3.4s.7-.3,1-.6.3-.8.3-1.3-.1-.6-.2-.9c-.1-.2-.3-.4-.4-.5s-.4-.2-.6-.3c-.2,0-.5-.2-.7-.2-.1,0-.2-.1-.3-.3s-.1-.3-.2-.5,0-.5.2-.7.4-.3.6-.4.6,0,.9.2c.3.1.6.4,1,.7s.6.7.8,1.2.4,1.1.5,1.7,0,1.1,0,1.6-.2.9-.4,1.3-.5.7-.8.9-.7.4-1.1.4-1,0-1.4-.2c-.4-.2-.8-.5-1.2-.9-.2.5-.4.9-.6,1.2s-.5.6-.8.8-.7.3-1.1.4-.9,0-1.4-.1c-.5-.2-.9-.4-1.3-.8s-.7-.8-1-1.4c-.3-.5-.4-1.2-.5-1.8s0-1.3,0-1.9.4-1.1.7-1.5c.3-.4.6-.7.9-.9.3-.2.6-.4.9-.4s.6,0,.8.2c.2.2.3.5.4.8s0,.3,0,.5-.2.3-.3.3c-.7.4-1.2.8-1.5,1.2s-.4.9-.3,1.5.2.7.4,1c.2.3.5.6.8.7.3.2.7.2,1.1.2.6,0,1.1-.3,1.4-.7s.4-1,.3-1.6,0-.3-.1-.5,0-.4,0-.5c0-.3,0-.6.1-.8s.3-.3.6-.3.5,0,.6.2.3.5.4.9v.4Z"/>
        <g>
          <path class="st9" d="M376.8,335.8l.4,4.7c.7-1.5,1.2-2.4,1.4-2.7s.2-.2.3-.2c.1,0,.2,0,.2.2s0,.4-.1.5-.2.5-.5.9c-.3.6-.6,1.1-.8,1.6-.2.5-.4.9-.5,1.4s-.2.7-.3.9-.1.3-.3.4-.3.2-.4.2-.2-.2-.2-.4l-.5-6c0-.7.1-1.3.5-1.7s.3-.3.4-.3.2.2.2.4Z"/>
          <path class="st9" d="M373.2,347.3l-2.9,3.2c-.3.3-.5.5-.6.5s-.2,0-.2-.3,0-.4.2-.8.3-.9.4-1.4c.2-.5.3-1.1.5-1.7s.3-1.4.4-2.2c0-.4,0-.6,0-.8s0-.5,0-.8,0-.6,0-.8c0-.4,0-.8.2-1s.2-.5.4-.7.3-.3.4-.3.2.2.2.5,0,.6,0,1-.1,1.1-.3,1.8-.3,1.5-.5,2.4c-.2.9-.5,1.8-.8,2.7l2.3-2.6c.2-.3.4-.4.6-.4.1,0,.2,0,.2.3s0,.5-.2.7-.3.4-.5.7Z"/>
        </g>
        <g>
          <path class="st9" d="M356.8,355.2l4.8.8c.5-.9,1-1.4,1.4-1.7s.4-.2.7-.3c.3,0,.5,0,.6,0s.2.1.2.2-.2.3-.5.6c-.4.4-.6.7-.7,1-.1.2-.2.5-.2.7s0,.3,0,.4-.1.2-.4.3-.5.3-.8.3-.6,0-.8,0l-6.1-1.1c-.7-.1-.7-.4,0-.8s.6-.3.9-.4.6,0,.9,0Z"/>
          <path class="st9" d="M347.4,363.4c-.6-.1-1-.2-1.3-.3s-.5-.3-.6-.5c0-.3,0-.6.3-.9s.7-.7,1.4-1.1,1.5-.8,2.4-1.1c.9-.3,1.7-.5,2.5-.6.4,0,.9,0,1.3,0s.8,0,1.3.1,1,.2,1.3.3.6.3.7.4c.2.3.2.6,0,1-.3.4-.8.8-1.5,1.2s-1,.6-1.5.8-1,.4-1.6.6-1.1.3-1.6.3c-.9.1-1.9,0-3,0ZM349.4,362.2c.6.1,1.2.2,1.7.2s1,0,1.5-.2.9-.3,1.3-.6c.6-.4.8-.7.6-.9s-.8-.4-1.8-.6-1.3-.2-1.8-.2-1,0-1.5.2-.9.3-1.3.6-.7.5-.7.7.1.4.4.5.8.3,1.5.4Z"/>
        </g>
      </g>
    </g>
    <g id="D20_Top">
      <g id="sides2">
        <polygon class="st4" points="316.3 109 291.7 152.9 342.1 152.3 316.3 109"/>
        <polygon class="st4" points="316.3 109 342.1 152.3 354.9 115.8 316.3 109"/>
        <polygon class="st4" points="316.3 109 291.7 152.9 278 116.7 316.3 109"/>
        <polygon class="st4" points="317.3 182.9 291.7 152.9 342.1 152.3 317.3 182.9"/>
        <polygon class="st4" points="278 116.6 316.2 96.3 316.3 108.9 278 116.6"/>
        <polygon class="st4" points="354.9 115.8 316.3 109 316.2 96.4 354.9 115.8"/>
        <polygon class="st4" points="317.3 182.9 353.1 159.9 342.1 152.3 317.3 182.9"/>
        <polygon class="st4" points="317.3 182.9 280.8 160.8 291.7 152.9 317.3 182.9"/>
        <polygon class="st4" points="354.9 115.8 342.1 152.3 353.1 159.8 354.9 115.8"/>
        <polygon class="st4" points="278 116.8 291.7 153 280.8 160.8 278 116.8"/>
      </g>
      <g id="numbers2">
        <g>
          <path class="st6" d="M310.7,142.9c.8,0,5.3-.3,5.9.2.8.6.3,2-.8,1.9h-6.7c-4.9-1.8,4.2-6.4,4.8-8.6,1.3-2.5-2.4-4.4-3.7-2-.3.6-.5,2.1-1.6,2-1.3,0-1.2-1.5-.8-2.4.9-2.5,4.5-3.1,6.7-2.1,5.8,3.5-1.2,8.1-3.7,10.9h0Z"/>
          <path class="st6" d="M327.8,138.3c.2,11.1-11.6,7.4-9.2-2.2.8-7.7,10.3-5,9.2,2.2ZM325.3,138.1c.5-6.3-5-6.6-4.3.1-.5,6.7,5.1,6.5,4.3-.1Z"/>
        </g>
        <path class="st6" d="M296,128.5c.5-.7,2.5-4.9,3.2-5.3,1-.5,1.5.7.9,1.5l-3.5,6.2c-4.3,3.8-1.7-7.6-4.1-8.6-1.7-.9-3.4,1.8-2.7,3.3.6.8,1.3,2.2,0,2.8-6.8-1.4,5.8-19.1,6.2,0h0Z"/>
        <g>
          <path class="st6" d="M331.5,122.4l6-3.6c-2.2-.7-4.1-2.5-1.8-2.9,1.3,1,3.2,1.9,4.9,1.9.7.4.6,1.4-.2,1.8l-7.5,4.5c-1.6,1.2-2.9-.9-1.4-1.7Z"/>
          <path class="st6" d="M337,131.9l1.2-.7c-.8-1.4-4.6-6.3-.3-5.4,7.7,1.1,13.4.7,2.8,6.3,1.5,1.8-.6,3-1.5.9-.5.2-1.6,1.1-2.1.9-.9-.2-1.1-1.5-.1-1.9h0ZM337.9,127.3l1.8,3,3.8-2.3-5.6-.7h0Z"/>
        </g>
        <path class="st6" d="M332.4,108.3c-1.7-1.8-5.9-.9-7.6-2.6-.2-.3.2-2.5.2-2.8,1.4-1.6,5.8,3.3,7.1,4,1.1,0,4.1,1.5,1.3,1,2.7,1.8.7,1.6-.9.5h-.1ZM326.7,105.9l3.4.6-3.3-2.6v2h-.1Z"/>
        <g>
          <path class="st6" d="M284.5,142.6l-1.2,5.2c1.2,0,1.5,2.7.5,1.9-1-1-1.8,1.1-1.5-1.8.2-.5,2.3-11.6,2.2-5.3h0Z"/>
          <path class="st6" d="M282.2,137.3c-2.2-5.4-1.2-6.4.7-.4,1.3,4.7-4.1-.4-2.4,5.5.5,1.5.8-.8,1.2,0,0,.2.1.4.1.6-.5,6.1-5.2-7,.4-5.9v.2Z"/>
        </g>
        <path class="st6" d="M351.8,143.7c0,4.6-2,4.5-2.2,0,.4-11,4,.2,3.1,4.3,0,2.4-2,3.7-1.6.5.2-.7.4.2.7.2.9-1.5.3-3,0-5ZM350.4,141.1c-.3,1.1-.4,3.6.7,4.2.9-.4.4-5.7-.7-4.2Z"/>
        <g>
          <path class="st6" d="M301.3,168.9l-5.6-1.2c2.8,1.4,3.5,3.2.8,1.3-1.2-1.3-3.6-1.6-4.2-2.9.3-.2,12.3,2.2,9,2.8h0Z"/>
          <path class="st6" d="M290.9,160.2c2.6.6,6.3,1.8,7.1,4.4-2.3,2.9-16.5-6-7.1-4.4ZM291.8,161.4c-6.6-1.1,1.4,2.8,3.7,2.5,2.9-.3-2.6-2.5-3.7-2.5Z"/>
        </g>
        <g>
          <path class="st6" d="M338.5,161.9l5.5-1.6c-.5-1.2,2.2-3.4,1.7-1.8-.6,1.7,1.7,1.6-1.2,2.8-.6,0-12.1,4-5.9.5h-.1Z"/>
          <path class="st6" d="M337.9,166.3c0,2.5-4.3,5-6.6,4.9-1.8-2.5,9.8-9,10.2-5.7-.7,1.7-2.9,3.5-4.5,4.1-1.7-.2,6.9-4.4,1-3.3h-.1ZM333,168.9c-1.2,2.2,3.2-.2,3.6-1,1.3-2.3-3.2.2-3.6,1Z"/>
        </g>
        <path class="st6" d="M313.9,164.9c-4.7-1.5-1.6-6.8,2.4-6.2,4-.7,7,4.6,2.5,6.2,3.9,1.5.8,5.8-2.5,5.2-3.2.5-6.3-3.6-2.4-5.2ZM318.3,161.1c-1.6-2.4-5.9.3-3.5,2.5,1.7,1.4,4.9-.3,3.5-2.5ZM317.4,168.4c2.5-1.4-.7-4-2.4-2.4-1.7,1.5.8,3.4,2.4,2.4Z"/>
        <g>
          <path class="st6" d="M296.6,109.9l4.6-4.3c-2.7,1.7-3.8,1.3-1.2,0,1.5-.4,3.1-2.2,4.2-2.1-.1.3-9.5,9.3-7.7,6.3h.1Z"/>
          <path class="st6" d="M305.1,104.6c3.3-3.3,8.4-2.8,1.9.7.4,1.9-4.6,4.4-6.4,4.1-.2-1.6,2.6-2.9,3.9-3.6-.3-.2-.1-.6.6-1.2ZM305.1,107.1c2.1-2.3-2.6,0-2.9,1.1,0,1.2,2.4-.6,2.9-1.1ZM308.2,103.3c-.5,0-3.4,1.8-2.1,1.9.6,0,3.4-1.7,2.1-1.9Z"/>
        </g>
      </g>
    </g>
  </g>
</svg>