<?xml version="1.0" encoding="UTF-8"?>
<svg xmlns="http://www.w3.org/2000/svg" version="1.1" xmlns:xlink="http://www.w3.org/1999/xlink" viewBox="0 0 1366 768">
  <!-- Generator: Adobe Illustrator 29.3.1, SVG Export Plug-In . SVG Version: 2.1.0 Build 151)  -->
  <defs>
    <style>
      .st0 {
        opacity: .8;
      }

      .st1 {
        fill: #d78d5f;
      }

      .st2, .st3 {
        fill: #f2e8cf;
      }

      .st3 {
        stroke: #ffe8cf;
      }

      .st3, .st4, .st5 {
        stroke-linejoin: round;
      }

      .st6, .st5 {
        fill: #72908d;
      }

      .st7 {
        fill: #fff;
      }

      .st8 {
        mask: url(#mask);
      }

      .st9 {
        opacity: .4;
      }

      .st10 {
        fill: none;
      }

      .st11 {
        fill: #9f5441;
      }

      .st12 {
        fill: url(#radial-gradient);
      }

      .st13 {
        fill: url(#radial-gradient5);
      }

      .st14 {
        fill: url(#radial-gradient1);
      }

      .st4 {
        stroke: #9e4749;
      }

      .st4, .st15 {
        fill: #bc4749;
      }

      .st16 {
        fill: url(#radial-gradient7);
      }

      .st17 {
        fill: #a7a3b2;
      }

      .st18 {
        fill: #f0b470;
      }

      .st5 {
        stroke: #45908d;
      }

      .st19 {
        display: none;
      }

      .st20 {
        fill: url(#radial-gradient6);
      }

      .st21 {
        fill: url(#radial-gradient2);
      }

      .st22 {
        fill: url(#radial-gradient4);
      }

      .st23 {
        fill: url(#radial-gradient3);
      }

      .st24 {
        clip-path: url(#clippath);
      }

      .st25 {
        opacity: .5;
      }

      .st26 {
        filter: url(#luminosity-noclip);
      }
    </style>
    <radialGradient id="radial-gradient" cx="422.9" cy="215" fx="422.9" fy="215" r="87.9" gradientUnits="userSpaceOnUse">
      <stop offset="0" stop-color="#ebd197"/>
      <stop offset=".2" stop-color="#e2c582"/>
      <stop offset=".6" stop-color="#cca84c"/>
      <stop offset="1" stop-color="#b48811"/>
    </radialGradient>
    <radialGradient id="radial-gradient1" cx="878.6" cy="414.9" fx="878.6" fy="414.9" r="46.2" xlink:href="#radial-gradient"/>
    <radialGradient id="radial-gradient2" cx="476.6" cy="302.3" fx="476.6" fy="302.3" r="31.3" xlink:href="#radial-gradient"/>
    <radialGradient id="radial-gradient3" cx="883.1" cy="519.6" fx="883.1" fy="519.6" r="23.2" xlink:href="#radial-gradient"/>
    <radialGradient id="radial-gradient4" cx="598.8" cy="250.7" fx="598.8" fy="250.7" r="10.8" xlink:href="#radial-gradient"/>
    <radialGradient id="radial-gradient5" cx="464.3" cy="525.3" fx="464.3" fy="525.3" r="10.8" xlink:href="#radial-gradient"/>
    <radialGradient id="radial-gradient6" cx="462.4" cy="572.1" fx="462.4" fy="572.1" r="22.5" xlink:href="#radial-gradient"/>
    <clipPath id="clippath">
      <path class="st10" d="M638.1,479.3c122.4-.6,122.2,68.6.8,71.3-121.5-.4-123.3-69.6-.8-71.3ZM555.9,513.9c.3,37.6,165.5,36.1,165-1.6,1.2-36.3-167-34.7-165,1.6ZM792.7,589.3l12.9,3.9c6-37.5-35.4-56.1-67.2-52-3.3-.1-3.6.6-3.3,3.2,1.3,3.8-1.8,16.3,5.4,12.1,25.3-12.9,52.7,9,52.1,32.7h0ZM789.1,608.7c-8.9,18.9-25.8,34.3-51.7,46.5-4.6,2.6-3.3,15.7-3.6,18.7,6.1-.1,3.6-7.1,12.5-11.4,24-9.1,43-29.9,53-50.7l-10.2-3.1ZM805.6,593.2l-12.9-3.9c-.3,6.4-1.4,13.8-3.5,19.4l10.2,3.1c3.3-6.8,5.4-13.2,6.2-18.6ZM740.2,556.6c-3.1,1.3-4.5,1.4-4.4-2.4.3-12.1-4.8-13,8.5-12.2,27-2.6,61.2,16.4,58.9,46.6-3.3,28.2-23.4,53.6-47.1,68.3-5.2,3-11.7,4.6-15.5,9.4-2.3,2.6-2.7,7.5-6.9,7.5-.2-.2-.2-.7-.2-1.1,0,.4-.1.8.2,1.2,4.2.3,5.1-4.7,7.5-7.2,4-4.6,10.4-5.7,15.7-8.5,8.7-4.5,16.4-10.7,23.2-17.8,40.2-38.7,34.8-97.9-28.4-100.2,0,0-7.3.2-7.3.2-3,.7-9.9-1.7-10,2.9.1,2.3.9,8.4,1.1,10.9,0,4,1.7,4,4.8,2.4ZM732.9,700.8h0c3.1-47.7,5.9-66.8,5.6-107-13.7,37.7-184.1,39.5-198.7,1.9.5,40.2,3.6,59.2,7.6,106.8M547.5,702.5h0c-1.6,32,187.3,30.3,185.3-1.8M738.3,584.8c-.7-24.4-3.3-48.7-7.2-72.8h0c1.7,47.1-186.3,48.9-185.5,1.8h0c-3,21.6-5.1,43.4-5.6,65.2h0c.9,32.4,178.5,51.4,198.2,5.9ZM539.9,595.7h0c-3.2,37.7,202.4,35.7,198.5-1.9h0c0-2.5-.1-5.1-.2-7.6-16.4,38.8-184.3,30.7-198.3-5.6-.1,5-.2,10.1-.2,15.1ZM732.9,700.8c-7.9,30.2-115,19.4-142.7,19.9-13.5-2.1-39.1-1.7-42.7-18.2-2.3,35.6,189.5,33,185.3-1.8h0ZM535.3,545c0,.6,1,.6.8,0-.2-.3-.8-.2-.8,0Z"/>
    </clipPath>
    <filter id="luminosity-noclip" x="518.1" y="461.1" width="242.7" height="108.1" color-interpolation-filters="sRGB" filterUnits="userSpaceOnUse">
      <feFlood flood-color="#fff" result="bg"/>
      <feBlend in="SourceGraphic" in2="bg"/>
    </filter>
    <radialGradient id="radial-gradient7" cx="571.9" cy="515.2" fx="571.9" fy="515.2" r="80.9" gradientTransform="translate(67.5 689.8) scale(1 -.3)" gradientUnits="userSpaceOnUse">
      <stop offset=".9" stop-color="#fff"/>
      <stop offset="1" stop-color="#000"/>
    </radialGradient>
    <mask id="mask" x="518.1" y="461.1" width="242.7" height="108.1" maskUnits="userSpaceOnUse">
      <g class="st26">
        <rect class="st16" x="518.1" y="461.1" width="242.7" height="108.1" transform="translate(1278.9 1030.4) rotate(-180)"/>
      </g>
    </mask>
    <image id="image" width="835" height="627" xlink:href="../../Downloads/toppng.com-library-library-collection-of-dirt-clipart-png-فقاعات-2389x1795.png"/>
  </defs>
  <g id="ai_img" class="st19">
    <image class="st25" width="1392" height="1392" transform="translate(650.4 -2.3) scale(.6)" xlink:href="coffee-mug-magic-1.png"/>
  </g>
  <g id="dnd_dice_img" class="st19">
    <image class="st9" width="1500" height="1500" transform="translate(562.2 302.7) scale(0)" xlink:href="coffee-mug-magic-2.png"/>
  </g>
  <g id="stars">
    <path class="st12" d="M493.3,215s-49.3.8-60.3,5.1-11.9,97.3-12.1,97.3c-.1,0,1.5-89.2-8.2-97.3-7.7-6.8-60.4-4.5-60.3-5.1,0-.6,52.6,1.7,60.3-5.1,9.7-8.2,8.1-97.3,8.2-97.3.2,0-.1,92.5,12.1,97.3s60.3,5.1,60.3,5.1Z"/>
    <path class="st14" d="M922.1,414.9c-50.3,3.6-38.8,1.4-44.4,48.7-5-47.1,7.8-46.3-42.6-48.7,50.4-2.4,37.5-1.6,42.6-48.7,5.5,47.3-5.6,45.1,44.4,48.7Z"/>
    <path class="st21" d="M506.1,302.3c-34.1,2.5-26.4.9-30.2,33-3.4-32,5.3-31.4-28.9-33,34.2-1.6,25.5-1.1,28.9-33,3.7,32.1-3.8,30.6,30.1,33Z"/>
    <path class="st23" d="M904.9,519.6c-19.1-.2-20.8,8.9-22.4,24.6-.4-17.2-.9-23.4-21.3-24.6,20.5-1.2,20.8-7.6,21.3-24.6,1.5,15.8,3.3,24.7,22.4,24.6Z"/>
    <path class="st22" d="M609,250.7c-8.7-.2-9.9,4.4-10.4,11.5,0-7.7-.8-11.2-9.9-11.5,9.2-.3,9.9-3.9,9.9-11.5.6,7.2,1.8,11.7,10.4,11.5Z"/>
    <path class="st13" d="M474.5,525.3c-8.7-.2-9.9,4.4-10.4,11.5,0-7.7-.8-11.2-9.9-11.5,9.2-.3,9.9-3.9,9.9-11.5.6,7.2,1.8,11.7,10.4,11.5Z"/>
    <path class="st20" d="M483.6,572.1c-24.5,1.7-19,.8-21.7,23.8-2.4-23,3.8-22.6-20.8-23.8,24.6-1.2,18.3-.8,20.8-23.8,2.7,23.1-2.7,22,21.7,23.8Z"/>
  </g>
  <g id="mug">
    <path class="st2" d="M545.4,515.1c.7,47,185.7,45.6,185.6-1.5,1.1-45.4-187.5-43.8-185.6,1.5Z"/>
    <path class="st2" d="M555.7,513.9c.3,37.6,165.4,36.3,165-1.4,1.3-36.3-166.9-34.9-165,1.4Z"/>
    <g>
      <path class="st2" d="M792.4,589.5c.6-23.7-26.7-45.6-52.1-32.8-7.3,4.2-4.1-8.4-5.4-12.1-.2-2.6,0-3.4,3.3-3.2,31.7-4.1,73.2,14.5,67.1,52.1l-12.9-3.9h0Z"/>
      <path class="st2" d="M789.8,591.4c.8-11.9-3.3-20.6-14.6-28.8-20.1-18.8-39.8,6.2-42-6.6,0-9.5-5.4-19.1,9.1-17.2,32.8-4.3,74.2,20.8,64.8,58.1l-17.4-5.6ZM742.4,543.9c-1.8,0-3.5,0-5.1,0,.3,3.7.6,7.4.9,11,27.3-14.3,55.9,8.1,56.7,32.8l8.3,2.5c3.6-31.6-33.4-49.9-60.7-46.3Z"/>
    </g>
    <g>
      <path class="st6" d="M788.8,609c-9,18.9-25.8,34.3-51.7,46.4-4.6,2.6-3.4,15.7-3.6,18.7,6.1-.1,3.6-7.1,12.5-11.4,24-9.1,43-29.8,53.1-50.6l-10.2-3.1Z"/>
      <path class="st6" d="M732.9,676.5l-.9-.2c-2.5-3.5-.6-5.6-.7-10.6.8-4.5-1.1-8.5,4.5-12.5,26.8-12.7,42.5-27.3,51.7-47.3l15,4.5c-11.2,24.7-31.2,45.1-55.5,54.5-7.3,3-5.8,12.2-14.2,11.6ZM735.8,673.3h0ZM733.7,671.6h0ZM790.1,611.9c-10.5,20.7-27.6,33.9-51.8,45.6-2.6,1.4-1.7,9.1-2.3,12,3.5-9.4,17.1-11.5,25.2-17.4,13.5-8.8,26.1-23,34.2-38.5l-5.4-1.6Z"/>
    </g>
    <g>
      <path class="st15" d="M799,612.1l-10.2-3.1c2.1-5.6,3.3-13,3.5-19.4l12.9,3.9c-.8,5.4-2.9,11.9-6.2,18.6Z"/>
      <path class="st15" d="M785.2,610.3c3.8-7,4.6-16.1,4.6-24.1l18.2,5.5c-.8,7.3-3.6,15.3-7.7,23.4l-15.1-4.7ZM794.7,592.8c-.5,4.9-1.2,9.9-2.6,14.5l5.7,1.7c2.3-4.9,3.9-9.7,4.7-13.8l-7.8-2.4Z"/>
    </g>
    <path class="st6" d="M547.1,702.5c-4-47.6-7.1-66.7-7.5-106.9,14.4,37.5,184.8,36.2,198.7-1.6.3,40.2-2.6,59.3-5.7,107h0"/>
    <path class="st6" d="M732.5,700c2.2,31.9-186.7,33.6-185.3,1.5h0"/>
    <path class="st2" d="M712.4,603.7c-37.6,16.7-172.7,5-172.6-24.8h0c.6-21.8,2.7-43.6,5.7-65.2h0c-.9,47.1,187.2,45.6,185.5-1.5h0c3.8,24.1,6.4,48.5,7.1,72.8-.6,7.7-8.6,13.5-25.7,18.7Z"/>
    <path class="st15" d="M539.8,580.5c13.7,36.2,181.7,44.8,198.3,5.9,0,2.5.1,5.1.2,7.6h0c3.8,37.6-201.7,39.3-198.5,1.6h0c0-5,0-10.1.2-15.1Z"/>
    <path class="st15" d="M732.5,701c-8,30.1-115,19.2-142.7,19.8-13.5-2.1-39.1-1.7-42.7-18.2-2.4,35.6,189.5,33.2,185.3-1.5h0Z"/>
    <g class="st24">
      <g>
        <g class="st0">
          <use transform="translate(653.5 649.6) rotate(179.5) scale(.2 -.2)" xlink:href="#image"/>
          <use transform="translate(526.9 507.6) rotate(90.6) scale(.2 -.2)" xlink:href="#image"/>
          <use transform="translate(719.4 491.5) rotate(179.5) scale(.2 -.2)" xlink:href="#image"/>
          <use transform="translate(720 555.9) rotate(179.5) scale(.2 -.2)" xlink:href="#image"/>
          <use transform="translate(730.4 648.9) rotate(179.5) scale(.2 -.2)" xlink:href="#image"/>
        </g>
        <use class="st0" transform="translate(810.3 537.5) rotate(179.5) scale(.2 -.2)" xlink:href="#image"/>
      </g>
    </g>
    <g class="st8">
      <path class="st11" d="M555.7,512.4c.3,37.6,165.4,36.3,165-1.4,1.3-36.3-166.9-34.9-165,1.4Z"/>
    </g>
  </g>
  <g id="coffee_splash">
    <g id="main">
      <g>
        <path class="st11" d="M821.8,400.4c9.8-3.2,19.3-5.4,26-16.6,2-3.9,4-10.3,2.3-11.3-2.6-.4-4.2,1.8-5.5,4-3.6,6.1-.3,6.2-7.3,11.4-.5.3-7.5,5.1-14.7,7.2-8.6,1.7-15.9,5-18.9,1.8-.4-1.2,2.5-6,4.5-8.3,44.2-50.5,62-97.1,63.3-105.6,4.8-30,17.2-108-34.7-169.3-99.3-102.8-262.6-58.4-302.7,10.7-2.1,3.8-27.8,52.7-3.3,85.3,10.3,13.8,33.6,29.9,54.6,20.7,21.8-8.5,37-46.6,10.3-61.2-15.4-5.3-29.2,15.6-16.8,26.3,8.4,5.8,16.9-3.3,11-11.5-1.7-2.1-4.1-2.5-4.3-4.5.3-7.2,8.2-.3,9.2,1.5,14.4,18.7-12.7,36.5-27.8,21.3-10.4-9.7-7-30-1.5-42,10.5-22.9,34-35,53.3-41.4,52.4-23.7,136.3,3.2,138.8,72.7-.2,44.4-47.6,71.5-56.7,76.7-42.8,24.5-65.2,4.4-125.3,27.3-27.2,10.4-56.8,21.6-73.3,51.3-20.5,36.7-15.8,92,11.3,113.3,17.6,13.9,37.1,7.5,63.3,30.7,11.5,10.2,21.4,24.7,24.4,24.7,18.7,0,41.6,0,58.8,0,35.7.7,17.3,2.8,20.4-25.4,2.3-7.3,8.9-12.8,11.6-11.8,1.5.6,1.5,3.2,3.3,3.6,5.9-.8,6.4-8.4,3.3-12-.6-.7-2.5-2.5-8.2-2.2-20.5,3.2-26.4,14.1-30.5,26.3-11.1-35.5,56.5-44.1,63.8-42.7,26.8,1.5,44.6,10.9,71.7-4.9,11.9-8.8,14.6-14.2,12.5-26.1-.1-.5-1.7-11.8-4.7-8.1-3.3,4.4-5.2,16.6-12,19.8-25.2,12.2-32.8,8.3-60,7,29.2-8.7,54.6-16.4,69.8-38.1,0,0,11.9.8,20.6-.6Z"/>
        <path class="st11" d="M701,484.8c-8.8,1.3,2.3,11.9-14.1,13,.9,1.7,15.7,0,17.1-6.7.6-1.1.6-6-3-6.3Z"/>
        <path class="st11" d="M738.1,467.3c-11.9-3.8-32,3.9-37.1,13.8,5.7-3.8,18.2-9.7,30.1-5.2,3.3.9,3.8,2.1,6,3.8,12.6,5.6,12.4-10.6,1-12.3Z"/>
        <path class="st11" d="M551.3,496.5c-2.1,1.7-4.4,2.1-6.6.1-.9-1.5-.5-3.4-.6-5.4.2-2.5-1.4-3-3.1-2.2-5.8,3.7-3.1,14.3,5.2,13.5,1.4.1,6.4-1.1,7-4.1.5-1.2-.7-2.5-1.9-1.9Z"/>
        <path class="st11" d="M496.9,459.6c-10.1-9.1-3.9-21-16.7-26.3-13.2.6-9.8,12.6-3.8,18.2,13.2,12.2,22.5,17.8,31,18.9.4-.7-3.9-3.4-10.4-10.8Z"/>
        <path class="st11" d="M644.1,273.4c10.5-14-10.7-19-18.3-10.8-7.1,11,10.8,18.9,18.3,10.8Z"/>
        <path class="st11" d="M715.7,238.6c8.1,1,23.7-15.8,18.3-25.4-5.1-3.7-19.9,3.5-24.8,8.4-7,8.1-3.4,17.5,6.5,17Z"/>
        <path class="st11" d="M854.8,108.9c14.5,4.8,1.3,13.2,12.2,19.3,4.1,1.6,7.6-2.4,6.9-6.3-.2-4.4-3.6-7.5-6.2-9.8-4.8-6.6-19.8-6.8-22.1-4,0,.3,4.1-.9,9.1.8Z"/>
        <path class="st11" d="M726.9,47c9.6-4-2.5-11.9-7-4.9-2,4.3,3.5,6.6,7,4.9Z"/>
      </g>
    </g>
    <g id="light_shadows">
      <path class="st18" d="M518.1,374c25.5-51,70.6-53.2,125.9-58.6,45.4-.8,95.7-23.2,121.6-40.1,24.1-16.8,35.6-40.1,36.7-39.6.7.4-5.9,15.6-13.6,24.8-26.3,33.4-83.7,49-124.1,59.6-70.8,11.6-104.3-.4-146.4,53.8Z"/>
      <path class="st18" d="M524.6,328.1c7-17.2,59.8-30.3,71.8-27.8-4.3,1.6-33.8,10-38.8,12.5-20.7,7.9-32.1,16.7-33,15.3Z"/>
      <path class="st18" d="M559.1,324.6c11.3-13.5,53.1-17.4,72.8-20,60.7-12.2,114.7-47.9,125.4-106.7,1.4-2.8-1.4-22.8-3.6-27,.3-.1,3.4,5.8,5.2,12,11.9,41.9-33.8,87.2-63.8,107.5-31,18-63.6,17.3-97.5,23.7-23.9,5.2-38,11.8-38.5,10.6Z"/>
      <path class="st18" d="M707.8,298.9c13.1-4.1,67.3-36.2,76.9-66.2,6.3-14.7,7.1-28.2,8.2-28,6.7,53.2-58.7,91.2-85.1,94.2Z"/>
      <path class="st18" d="M726.2,308.8c51.8-21.1,102.1-51.8,119.1-115.1-3.8,54-73.2,105.2-119.1,115.1Z"/>
      <path class="st18" d="M495.8,432c-17.6-41.8-1.1-88.5,55.9-99.9,12.6-2.4-8.7,5.7-21.8,16.9-30.7,24.6-38.2,54.7-34.1,83Z"/>
      <path class="st18" d="M624.1,509.8c-7-8.6-18.9-21-36.4-30.1-14.6-7.4-27-8.7-26.9-9.1,26.8-1.9,59.8,29.9,63.3,39.2Z"/>
      <path class="st18" d="M619.6,500.2c-20.6-36.4,40.1-76.1,65.7-78.2,0,.1-4.5,1.5-12.6,5.3-17.3,7.9-36.4,21.7-45.9,37.6-8.6,11.8-6.7,32.9-7.2,35.3Z"/>
      <path class="st18" d="M680.9,516.8c-5.3-.9-12.8-16.5-12.1-19.4.5-7.4,13.8-21.6,23.6-19.3,1.4.9,1.4,3.5,1.3,3.5-.2-.3-.8-1.9-1.9-2.1-5.3.5-7.6,4.6-10.3,9.2-5.7,8.8,4.5,25.6-.7,28Z"/>
      <path class="st18" d="M635.5,509.4c-5-10.8,6.2-34.3,11.7-38.6,12.2-16,45.5-23.8,55-23,0,.2-2.1.7-5.1,1.6-40.1,11.1-55.7,25.3-61.6,60Z"/>
      <path class="st18" d="M697.3,497.3c2.9-1.6,4.2-4.3,5.8-7,.9-1.1,1.2,0,1,.7-.7,3.3-4.4,5.5-6.8,6.4Z"/>
      <path class="st18" d="M739.6,480.7c1.3.6,4.9,0,5.4-2.8.4-.9-.7-3.4.5-4.8,1.5-.8,2.3,2.2,2.3,3.2-.1,3.6-5.9,5.6-8.1,4.3Z"/>
      <path class="st18" d="M754.1,455.6c1.8.1,24-2.5,31.1-8,11.9-7.9,20.8-19.4,20.9-29.4-1.3-5.1-1-7.1,2.7-2.5,15.8,30.9-34.9,44.4-54.7,39.8Z"/>
      <path class="st18" d="M802.7,404.2c3.3-2.1,14.1-1.7,20.7-3.5,12.4-3.9,29.3-13.1,28-26.3-2.4-2-3.2,2.6-2.7,3.9-2.7,9.3-16.2,14.7-22.9,17.6-8.9,2.2-26.3,8.2-19.4-1.6,8.6-14.7,27.4-22.1,36.6-29.4,26.6-20,28.2-56.2,29.4-67.6-.3,0-1.3,4.2-1.8,6.1-9.3,30.6-13.5,49.3-49.7,70.2-6.3,4.3-10.7,6.9-15.2,12.7-6.6,11.1-12.1,21-23.8,28.2-4.3,3.2-8,5.3-29.6,16.1-12.8,6.4-21.1,8-20.9,8.5,30.7-3.6,58.1-22.7,71.3-35Z"/>
      <path class="st18" d="M725.4,418.9c17-.2,82.3-27.6,101.6-52.2,13.6-16.5,35.6-52.6,42.8-76,5.2-17.5,6.6-35.2,5.6-35.4-.5-.1-1.7,4-2.9,7.8-24.8,83-86.9,125-147.1,155.8Z"/>
      <path class="st18" d="M783,327.2c58.1-4.6,115.2-88.4,85.3-154.2-.3,0,.3,3.5.7,9.7,6.6,64-43.4,122.4-86,144.4Z"/>
      <path class="st18" d="M539.2,185.1c-21.4-94.5,111.4-123.7,163.6-112.2,37.1,5.8,73.2,20.4,35.3-.2-31.2-20.2-93.5-19.2-126.9-4-42.9,10.7-119,68.7-72,116.4Z"/>
      <path class="st18" d="M710.1,237.4c-1.7.4-4.4-2.9-5-6.3-.9-5.7,4.4-10.4,6.8-12.5,7.8-7,18.4-7.7,18.8-6.8-1.5,1.3-15.6,10-16,12.3-4.4,6.2-2.3,12.8-4.5,13.3Z"/>
      <path class="st18" d="M521,186c7,21.9,36.1,47.5,66.8,34.7,13.2-6.1,19.7-19.9,21.4-18.7,1.2.8-2,7.5-3.9,10.9-7.2,16.5-28.7,23.5-41.2,20.4-27.3-3.8-43-35-43.1-47.2Z"/>
    </g>
    <g id="medium_shadows">
      <path class="st1" d="M509,457.3c-34.2-37.6-3.3-95.7,29.2-114.4.1.1-6.9,4.8-13.3,13.8-15,25.5-27,66.6-15.9,100.5Z"/>
      <path class="st1" d="M536.6,471.7c-42.8-12.1-37-62.3-16.9-98.7,17.5-30.8,69.9-50.6,90.9-46.3.1.6-5.8,1.6-13.8,4.3-67,24.2-91.1,74.8-60.2,140.7Z"/>
      <path class="st1" d="M624.3,501.4c-7.3-13.9,2-35.9,15.3-44.8,22-20.6,86.8-21.9,118.7-38.2,30.5-14.4,55.8-43.7,37.1-17.3-13.8,17.1-48.6,34.8-85.3,39.5-47.3,2.2-72,15.7-85.8,60.8Z"/>
      <path class="st1" d="M553.3,358.9c14.3-14.8,49.2-29.4,81.6-34.5,92.7-22.2,59.1-6.9,121.3-38.2,63.6-31.6,76.5-127.4,19.4-167.9-70.9-53.7-248.6-13.3-219,76.2-25.7-51.8,12.1-87.7,53-104.8,61.6-25.2,131.3-17.3,188.7,12.3,85.7,39.1,46.6,141.9-20.9,180.8-6.8,7.6-83.9,40.7-102.1,42.6-38.6,10-90.6,17.8-122.1,33.6Z"/>
      <path class="st1" d="M697.4,288.9c16.5-3.7,71.1-42.1,75-70.8,12.9-42.9-30.5-86.3-45.8-90.9,0,0,7.2,5.1,16.2,15.1,57.8,57.8-11.3,123.8-45.4,146.5Z"/>
      <path class="st1" d="M521,186c1.6-1.2,10,16.7,29.9,24.1,28.5,11,65.5-10.3,38.8-32.4,5.4-1.3,13.5,10.1,13.2,13.8,6.4,24.6-21.2,36.3-40.6,31.4-14.6-.8-41.1-23.1-41.2-36.9Z"/>
    </g>
    <g id="dark_shadows">
      <path class="st17" d="M590,356c.1.5,11.2-3.1,30.9-6,16.4-2.4,27.1-2.6,27.1-3.1,0-.5-11.1-1.2-23.8.2-19.3,2.2-34.4,8.3-34.2,8.9Z"/>
      <path class="st17" d="M837.2,259.6c6.4-9.2,12.6-30.6,13.2-42.3,4.2,11.4-8.1,40.3-13.2,42.3Z"/>
      <path class="st17" d="M738.3,89.6c48.2,14.5,72.1,33,87.3,75.1-1.9-58.1-60-76.2-87.3-75.1Z"/>
      <path class="st17" d="M849.7,286.9c13.3-12.4,29-58.3,26.4-67.9-6.4,19.4-10.7,35.1-26.4,67.9Z"/>
    </g>
  </g>
  <g id="d_x26_d_dice">
    <g id="D20_Bottom">
      <g id="sides">
        <g>
          <polygon class="st4" points="582 385.3 569.1 434 617.7 420.8 582 385.3"/>
          <polygon class="st4" points="582 385.3 617.7 420.8 621 382.2 582 385.3"/>
          <polygon class="st4" points="582 385.3 569.1 434 546.8 402.4 582 385.3"/>
          <polygon class="st4" points="601.4 456.7 569.1 434 617.7 420.8 601.4 456.7"/>
          <polygon class="st4" points="546.8 402.3 578.7 373.1 582 385.2 546.8 402.3"/>
          <polygon class="st4" points="621 382.2 582 385.3 578.7 373.2 621 382.2"/>
          <polygon class="st4" points="601.4 456.7 630.3 425.4 617.7 420.8 601.4 456.7"/>
          <polygon class="st4" points="601.4 456.7 560.6 444.3 569.1 434 601.4 456.7"/>
          <polygon class="st4" points="621 382.2 617.7 420.8 630.3 425.3 621 382.2"/>
          <polygon class="st4" points="546.8 402.4 569.1 434 560.6 444.3 546.8 402.4"/>
        </g>
      </g>
      <g id="numbers">
        <g>
          <path class="st7" d="M585,419.5c.8-.1,5-1.6,5.7-1.3.9.4.8,1.8-.3,2,0,0-6.5,1.8-6.5,1.8-5.7-.9,3.8-7.8,2.5-10.6-.5-2.1-3.6-1.9-4.1.1-.2.7,0,2.2-1,2.4-1.2.3-1.6-1.2-1.4-2.2.3-2.6,3.5-4.1,5.9-3.7,6.5,1.9.9,8.1-.9,11.5Z"/>
          <path class="st7" d="M600.5,410.8c3,10.7-9.4,10-9.5.2-1.1-7.6,8.7-7.4,9.5-.2ZM598,411.2c-1.1-6.3-6.5-5.1-4.2,1.2,1.2,6.6,6.5,5.1,4.2-1.2Z"/>
        </g>
        <path class="st7" d="M567.2,409.2c.3-.8,1.2-5.4,1.8-5.9.8-.7,1.6.3,1.2,1.2,0,0-1.8,6.8-1.8,6.8-3.2,4.8-3.6-6.9-6.2-7.3-1.9-.4-2.9,2.6-1.8,3.8.8.6,1.8,1.8.7,2.7-6.9.3.8-20,6-1.5Z"/>
        <g>
          <path class="st7" d="M600,394.5l4.9-4.9c-2.3-.1-4.6-1.4-2.4-2.3,1.5.6,3.6,1,5.2.6.8.2,1,1.2.3,1.8,0,0-6.2,6.2-6.2,6.2-1.2,1.5-3-.1-1.8-1.3Z"/>
          <path class="st7" d="M607.7,402.3l1-1c-1.1-1.2-6-5-1.6-5.2,7.7-.9,13.2-2.7,4.3,5.4,1.9,1.3.1,3.1-1.2,1.2-.4.4-1.2,1.5-1.8,1.4-.9,0-1.4-1.2-.6-1.9ZM607.5,397.6l2.5,2.4,3.1-3.2-5.6.7Z"/>
        </g>
        <path class="st7" d="M597.4,380.6c-2.1-1.3-5.9.6-8-.7-.3-.2-.4-2.5-.6-2.8.9-1.9,6.4,1.8,7.9,2.1,1.1-.3,4.4.5,1.5.6,3.1,1,1,1.4-.8.7ZM591.3,379.7l3.5-.3-3.8-1.7.4,1.9Z"/>
        <g>
          <path class="st7" d="M559.6,425.8v5.4c1.2-.4,2.2,2.3,1.1,1.7-1.3-.7-1.5,1.6-1.9-1.4,0-.5-.7-11.8.8-5.7Z"/>
          <path class="st7" d="M556,421.2c-3.5-4.7-2.8-5.9.6-.5,2.4,4.2-4,.7-1,5.9.9,1.3.6-1,1.2-.2.1.2.2.3.3.6.9,6-6.8-5.6-1.1-5.8Z"/>
        </g>
        <path class="st7" d="M625.1,410.1c.7,1.6.5,5.7-1.4,2.4-2.6-5.1-1.1-10.8,2.2-2.3,1.4,1.6,1.4,10.4-.3,4.8,0-.7.5.1.7,0,.5-1.7-.4-3-1.2-4.8ZM623,407.9c-.2.7,1.1,5,1.8,3.4.2-.8-1.1-5-1.8-3.4Z"/>
        <g>
          <path class="st7" d="M582.4,447.1l-5.8.2c3,.7,4.2,2.3,1.1,1.1-1.4-.9-3.9-.6-4.8-1.8.3-.3,12.4-.9,9.4.5Z"/>
          <path class="st7" d="M570.1,441.2c1.7-.3,9.6.8,7.3,3.2-2.7,1.8-16.4-2.3-7.3-3.2ZM571.3,442.2c-6.7.6,2.1,2.4,4.2,1.5,2.7-1-3.1-1.8-4.2-1.5Z"/>
        </g>
        <g>
          <path class="st7" d="M616.6,431l4.9-2.9c-.8-1,1.2-3.8,1.2-2.1-.2,1.8,2,1.1-.5,3-.6.2-10.7,6.9-5.6,2Z"/>
          <path class="st7" d="M617.2,435.4c.6,2.4-2.9,5.9-5.2,6.4-1.5-3.1,5-8.7,8.2-8.7,1,1.8-1.7,4.7-3.1,5.8-1.7.3,5.6-6,.1-3.4ZM613.1,439.1c-.5,2.5,3.6-1.4,3.4-2.5-.9-1-2.9,1.7-3.4,2.5Z"/>
        </g>
        <path class="st7" d="M593.6,440c-4.9-.3-3.3-6.2.7-6.6,3.7-1.7,7.9,2.7,3.9,5.3,4.2.5,2.3,5.4-1.1,5.7-3,1.3-7-1.9-3.6-4.4ZM596.9,435.2c-2.2-2-5.6,1.7-2.8,3.3,2,1,4.7-1.5,2.8-3.3ZM597.8,442.5c2.1-2-1.7-3.7-2.9-1.7-1.2,1.9,1.6,3,2.9,1.7Z"/>
        <g>
          <path class="st7" d="M563.1,391.1l3.4-5.3c-2.2,2.3-3.4,2.2-1.1.3,1.3-.7,2.4-2.9,3.6-3.1,0,.3-6.9,11.4-5.9,8.1Z"/>
          <path class="st7" d="M570,383.9c2.4-4,7.5-4.8,2,.2.8,1.7-3.3,5.4-5.2,5.5-.6-1.5,1.8-3.5,2.9-4.4-.3,0-.3-.5.2-1.3ZM570.6,386.2c1.4-2.7-2.5.7-2.5,1.8.2,1.2,2.1-1.2,2.5-1.8ZM572.7,381.8c-.5.1-2.9,2.6-1.5,2.4.6-.2,2.8-2.5,1.5-2.4Z"/>
        </g>
      </g>
    </g>
    <g id="D20_Middle">
      <g id="sides1" data-name="sides">
        <polygon class="st3" points="706.1 337.4 667.5 369.8 714.8 387 706.1 337.4"/>
        <polygon class="st3" points="706.1 337.4 714.8 387 739.7 357.4 706.1 337.4"/>
        <polygon class="st3" points="706.1 337.4 667.5 369.8 667.5 331.1 706.1 337.4"/>
        <polygon class="st3" points="680.8 406.9 667.5 369.8 714.8 387 680.8 406.9"/>
        <polygon class="st3" points="667.6 331 710.4 325.5 706.1 337.3 667.6 331"/>
        <polygon class="st3" points="739.7 357.4 706.1 337.4 710.4 325.6 739.7 357.4"/>
        <polygon class="st3" points="680.8 406.9 722.5 398 714.8 387 680.8 406.9"/>
        <polygon class="st3" points="680.8 406.9 654.5 373.2 667.5 369.8 680.8 406.9"/>
        <polygon class="st3" points="739.7 357.4 714.8 387 722.5 398 739.7 357.4"/>
        <polygon class="st3" points="667.5 331.1 667.5 369.8 654.5 373.2 667.5 331.1"/>
      </g>
      <g id="numbers1" data-name="numbers">
        <g>
          <path class="st15" d="M688.8,367.1c.7.4,5,1.6,5.4,2.3.5.9-.4,1.9-1.4,1.5,0,0-6.3-2.3-6.3-2.3-4-3.4,6.2-4.5,7.5-6.3,2.1-1.8-.7-4.9-2.8-3.2-.5.5-1.2,1.8-2.2,1.4-1.2-.5-.6-1.8.1-2.6,1.7-2,5.2-1.3,7,.4,4.2,5.3-4,7.1-7.4,8.9Z"/>
          <path class="st15" d="M706.5,368.8c-3.7,10.5-13.5,2.8-7.9-5.3,3.5-6.9,11.4-1.1,7.9,5.3ZM704.2,367.8c2.7-5.7-2.3-7.9-4.1-1.4-2.9,6.1,2.4,7.9,4.1,1.4Z"/>
        </g>
        <path class="st15" d="M680.2,348.4c.7-.5,4.1-3.7,4.9-3.8,1.1-.1,1.1,1.2.3,1.7,0,0-5.4,4.5-5.4,4.5-5.3,2.1,1.1-7.7-.8-9.5-1.3-1.4-3.8.4-3.7,2.1.3,1,.5,2.6-1,2.7-5.9-3.7,12.2-15.8,5.8,2.3Z"/>
        <g>
          <path class="st15" d="M715.5,355.3l6.9-1.2c-1.8-1.4-3-3.8-.7-3.3.9,1.4,2.4,2.9,3.9,3.5.6.6,0,1.6-.8,1.6,0,0-8.6,1.5-8.6,1.5-1.9.6-2.4-1.9-.7-2.1Z"/>
          <path class="st15" d="M717.3,366.1l1.4-.2c-.2-1.6-2.1-7.5,1.7-5.2,6.8,3.7,12.3,5.4.4,6.9.8,2.2-1.7,2.6-1.7.3-.5,0-1.9.5-2.3.1-.8-.5-.5-1.8.6-1.9ZM719.8,362.1l.6,3.4,4.4-.8-5-2.6Z"/>
        </g>
        <path class="st15" d="M721.4,342.5c-1-2.3-5.2-2.9-6.2-5.2-.1-.3,1.1-2.3,1.1-2.6,1.8-1,4.2,5.2,5.2,6.3,1.1.4,3.3,2.9.8,1.4,1.9,2.6,0,1.8-1,.1ZM716.9,338.2l3,1.8-2.2-3.6-.8,1.8Z"/>
        <g>
          <path class="st15" d="M664.5,357.5l-3,4.4c1.1.3.4,3.1-.2,2-.6-1.3-2.1.4-.7-2.2.4-.3,6.2-10,3.9-4.2Z"/>
          <path class="st15" d="M664.1,351.7c-.2-5.8,1.2-6.4.8,0-.4,3.3-1.4,1.5-3.1,1.5-.7.5-1.8,3.1-.8,3.4,1.1-1.1.8.6.3,1.2-2.8,2.6-.9-6,.8-6.5.7-.4,1.3.8,2,.5Z"/>
        </g>
        <path class="st15" d="M727,382.4c-.4,1.7-2.9,4.9-2.5,1.2.8-5.7,5.3-9.4,3.2-.6.3,2.1-4.8,9.3-3,3.7.4-.5.3.4.6.4,1.4-1,1.4-2.7,1.8-4.7ZM726.5,379.5c-.6.5-2,4.8-.5,3.9.6-.5,2-4.7.5-3.9Z"/>
        <g>
          <path class="st15" d="M670.8,388.1l-4.8-3.1c2.1,2.3,2.1,4.3.3,1.5-.6-1.6-2.8-2.8-2.9-4.2.4,0,10.7,6.4,7.4,5.8Z"/>
          <path class="st15" d="M664.2,376.2c1.6.8,7.4,6.2,4.2,6.8-3.2-.1-12.1-11.3-4.2-6.8ZM664.6,377.7c-5.8-3.4.4,3.1,2.6,3.6,2.8.7-1.5-3.3-2.6-3.6Z"/>
        </g>
        <g>
          <path class="st15" d="M708,394.7l5.7.5c0-1.3,3.2-2.4,2.2-1.1-1.2,1.4,1.1,2.1-2.1,2.2,0,0-7.2-.6-7.2-.6-2-.2.8-1.2,1.4-1Z"/>
          <path class="st15" d="M706,398.6c0,2-8.4,4-7.9,1.5,1.5-2.2,11.5-4.3,11.6-1-1.3,1.3-3.9,2.2-5.7,2.2-1.6-.8,8.1-1.7,2.1-2.7ZM700.4,399.3c-2.1,1.7,4.8,1,4.2-.5-1.1-.5-3.1,0-4.2.5Z"/>
        </g>
        <path class="st15" d="M684,388.8c-3.8-3.1.9-6.9,4.4-5,4,.8,4.9,6.8.1,6.6,3.1,2.8-1.3,5.7-4.2,4-3.2-.7-4.7-5.6-.4-5.7ZM686,393.3c2.9-.5.7-4-1.4-3.1-2.1.8-.4,3.4,1.4,3.1ZM689.5,386.8c-.6-2.8-5.6-1.8-4.2,1.1,1.1,1.9,4.7,1.5,4.2-1.1Z"/>
        <g>
          <path class="st15" d="M687.3,331.2l5.8-2.4c-3.2.6-4-.2-1.1-.4,1.5.2,3.7-1,4.7-.4-.2.3-12.2,5.3-9.5,3.2Z"/>
          <path class="st15" d="M697.1,329.3c4.3-1.9,8.8.4,1.5,1.4-.3,1.9-5.8,2.5-7.4,1.5.3-1.5,3.5-1.8,4.9-2-.2-.3,0-.6,1-.9ZM696.2,331.6c2.7-1.4-2.4-.8-3.1,0-.5,1.1,2.4.3,3.1,0ZM700.5,329.2c-.5-.2-3.9.5-2.6,1.1.6.2,3.7-.4,2.6-1.1Z"/>
        </g>
      </g>
    </g>
    <g id="D20_Top">
      <g id="sides2" data-name="sides">
        <polygon class="st5" points="668.7 148.4 644.1 192.3 694.5 191.7 668.7 148.4"/>
        <polygon class="st5" points="668.7 148.4 694.5 191.7 707.2 155.1 668.7 148.4"/>
        <polygon class="st5" points="668.7 148.4 644.1 192.3 630.4 156.1 668.7 148.4"/>
        <polygon class="st5" points="669.7 222.3 644.1 192.3 694.5 191.7 669.7 222.3"/>
        <polygon class="st5" points="630.4 156 668.6 135.7 668.7 148.3 630.4 156"/>
        <polygon class="st5" points="707.2 155.1 668.7 148.4 668.6 135.8 707.2 155.1"/>
        <polygon class="st5" points="669.7 222.3 705.5 199.2 694.5 191.7 669.7 222.3"/>
        <polygon class="st5" points="669.7 222.3 633.2 200.1 644.1 192.3 669.7 222.3"/>
        <polygon class="st5" points="707.2 155.1 694.5 191.6 705.5 199.2 707.2 155.1"/>
        <polygon class="st5" points="630.4 156.1 644.1 192.3 633.2 200.1 630.4 156.1"/>
      </g>
      <g id="numbers2" data-name="numbers">
        <g>
          <path class="st7" d="M663.1,182.3c.8,0,5.3-.3,5.9.2.8.6.3,2-.8,1.9,0,0-6.7,0-6.7,0-4.9-1.8,4.2-6.4,4.8-8.6,1.3-2.5-2.4-4.4-3.7-2-.3.6-.5,2.1-1.6,2-1.3,0-1.2-1.5-.8-2.4.9-2.5,4.5-3.1,6.7-2.1,5.8,3.5-1.2,8.1-3.7,10.9Z"/>
          <path class="st7" d="M680.2,177.6c.2,11.1-11.6,7.4-9.2-2.2.8-7.7,10.3-5,9.2,2.2ZM677.7,177.5c.5-6.3-5-6.6-4.3.1-.5,6.7,5.1,6.5,4.3-.1Z"/>
        </g>
        <path class="st7" d="M648.4,167.8c.5-.7,2.5-4.9,3.2-5.3,1-.5,1.5.7.9,1.5,0,0-3.5,6.2-3.5,6.2-4.3,3.8-1.7-7.6-4.1-8.6-1.7-.9-3.4,1.8-2.7,3.3.6.8,1.3,2.2,0,2.8-6.8-1.4,5.8-19.1,6.2,0Z"/>
        <g>
          <path class="st7" d="M683.9,161.8l6-3.6c-2.2-.7-4.1-2.5-1.8-2.9,1.3,1,3.2,1.9,4.9,1.9.7.4.6,1.4-.2,1.8,0,0-7.5,4.5-7.5,4.5-1.6,1.2-2.9-.9-1.4-1.7Z"/>
          <path class="st7" d="M689.4,171.2l1.2-.7c-.8-1.4-4.6-6.3-.3-5.4,7.7,1.1,13.4.7,2.8,6.3,1.5,1.8-.6,3-1.5.9-.5.2-1.6,1.1-2.1.9-.9-.2-1.1-1.5-.1-1.9ZM690.3,166.6l1.8,3,3.8-2.3-5.6-.7Z"/>
        </g>
        <path class="st7" d="M684.8,147.7c-1.7-1.8-5.9-.9-7.6-2.6-.2-.3.2-2.5.2-2.8,1.4-1.6,5.8,3.3,7.1,4,1.1,0,4.1,1.5,1.3,1,2.7,1.8.7,1.6-.9.5ZM679.1,145.3l3.4.6-3.3-2.6v2Z"/>
        <g>
          <path class="st7" d="M636.9,181.9l-1.2,5.2c1.2,0,1.5,2.7.5,1.9-1-1-1.8,1.1-1.5-1.8.2-.5,2.3-11.6,2.2-5.3Z"/>
          <path class="st7" d="M634.6,176.6c-2.2-5.4-1.2-6.4.7-.4,1.3,4.7-4.1-.4-2.4,5.5.5,1.5.8-.8,1.2,0,0,.2.1.4.1.6-.5,6.1-5.2-7,.4-5.9Z"/>
        </g>
        <path class="st7" d="M704.2,183.1c0,4.6-2,4.5-2.2,0,.4-11,4,.2,3.1,4.3,0,2.4-2,3.7-1.6.5.2-.7.4.2.7.2.9-1.5.3-3,0-5ZM702.8,180.5c-.3,1.1-.4,3.6.7,4.2.9-.4.4-5.7-.7-4.2Z"/>
        <g>
          <path class="st7" d="M653.7,208.3l-5.6-1.2c2.8,1.4,3.5,3.2.8,1.3-1.2-1.3-3.6-1.6-4.2-2.9.3-.2,12.3,2.2,9,2.8Z"/>
          <path class="st7" d="M643.3,199.5c2.6.6,6.3,1.8,7.1,4.4-2.3,2.9-16.5-6-7.1-4.4ZM644.2,200.8c-6.6-1.1,1.4,2.8,3.7,2.5,2.9-.3-2.6-2.5-3.7-2.5Z"/>
        </g>
        <g>
          <path class="st7" d="M690.8,201.2l5.5-1.6c-.5-1.2,2.2-3.4,1.7-1.8-.6,1.7,1.7,1.6-1.2,2.8-.6,0-12.1,4-5.9.5Z"/>
          <path class="st7" d="M690.3,205.7c0,2.5-4.3,5-6.6,4.9-1.8-2.5,9.8-9,10.2-5.7-.7,1.7-2.9,3.5-4.5,4.1-1.7-.2,6.9-4.4,1-3.3ZM685.4,208.2c-1.2,2.2,3.2-.2,3.6-1,1.3-2.3-3.2.2-3.6,1Z"/>
        </g>
        <path class="st7" d="M666.3,204.2c-4.7-1.5-1.6-6.8,2.4-6.2,4-.7,7,4.6,2.5,6.2,3.9,1.5.8,5.8-2.5,5.2-3.2.5-6.3-3.6-2.4-5.2ZM670.7,200.4c-1.6-2.4-5.9.3-3.5,2.5,1.7,1.4,4.9-.3,3.5-2.5ZM669.8,207.8c2.5-1.4-.7-4-2.4-2.4-1.7,1.5.8,3.4,2.4,2.4Z"/>
        <g>
          <path class="st7" d="M649,149.2l4.6-4.3c-2.7,1.7-3.8,1.3-1.2,0,1.5-.4,3.1-2.2,4.2-2.1-.1.3-9.5,9.3-7.7,6.3Z"/>
          <path class="st7" d="M657.5,144c3.3-3.3,8.4-2.8,1.9.7.4,1.9-4.6,4.4-6.4,4.1-.2-1.6,2.6-2.9,3.9-3.6-.3-.2-.1-.6.6-1.2ZM657.5,146.4c2.1-2.3-2.6,0-2.9,1.1,0,1.2,2.4-.6,2.9-1.1ZM660.6,142.6c-.5,0-3.4,1.8-2.1,1.9.6,0,3.4-1.7,2.1-1.9Z"/>
        </g>
      </g>
    </g>
  </g>
</svg>