<?xml version="1.0" encoding="UTF-8"?>
<svg id="Layer_1" xmlns="http://www.w3.org/2000/svg" version="1.1" xmlns:xlink="http://www.w3.org/1999/xlink" viewBox="0 0 540 987">
  <!-- Generator: Adobe Illustrator 29.3.1, SVG Export Plug-In . SVG Version: 2.1.0 Build 151)  -->
  <defs>
    <style>
      .st0 {
        fill: #5a3a32;
      }

      .st1 {
        fill: #938f9f;
        stroke-width: 2px;
      }

      .st1, .st2 {
        stroke: #fff;
      }

      .st3 {
        fill: #c58a7b;
      }

      .st4 {
        stroke: #c58a7b;
        stroke-width: 3px;
      }

      .st4, .st5 {
        fill: none;
      }

      .st6 {
        fill: #f0b470;
      }

      .st6, .st7 {
        stroke: #000;
      }

      .st8 {
        fill: #fff;
      }

      .st9 {
        fill: #9f5441;
      }

      .st2 {
        fill: #72908d;
      }

      .st10 {
        fill: #bc4749;
        fill-opacity: .9;
        stroke: #5a0000;
      }

      .st7 {
        fill: #6a6b3c;
      }

      .st11 {
        fill: #f3f3f3;
      }
    </style>
  </defs>
  <path class="st8" d="M28.9,611.1l210.2.7-23.8,236.5-161-.6-25.4-236.7Z"/>
  <ellipse class="st11" cx="134.2" cy="606.1" rx="41.3" ry="113" transform="translate(-472.5 737.5) rotate(-89.7)"/>
  <ellipse class="st8" cx="134.3" cy="604.9" rx="36.3" ry="107.2" transform="translate(-471.2 736.5) rotate(-89.7)"/>
  <ellipse class="st9" cx="134.5" cy="609.2" rx="29.9" ry="88.3" transform="translate(-475.3 741) rotate(-89.7)"/>
  <ellipse class="st5" cx="134.5" cy="609.2" rx="29.9" ry="88.3" transform="translate(-475.3 741) rotate(-89.7)"/>
  <ellipse class="st8" cx="135.3" cy="846.4" rx="27.1" ry="80" transform="translate(-711.8 977.9) rotate(-89.7)"/>
  <path class="st0" d="M252.4,806.3c-9.4,1.4-17.8-2.6-18.9-9.1-1-6.5,5.8-12.9,15.1-14.3,9.4-1.4,17.8,2.6,18.9,9.1,1,6.5-5.8,12.9-15.1,14.3Z"/>
  <path class="st4" d="M265.6,791.7l-2.1-1.1c-4.6-2.3-10.1-1-13.2,3.1v.2c-3.6,4.7-10.3,5.5-14.9,1.8h0"/>
  <path class="st3" d="M266.9,793.3c-.3.2-.7.1-1,0-.7-.1-1.1-.2-1.2-1-.1-.8.3-2.1,1.1-2.2,1,.3,1.7.8,1.8,1.6,0,.6-.2,1.2-.7,1.5Z"/>
  <path class="st3" d="M234.8,794.3c.5-.2,1,0,1.4.3.6.5.6.6.8,1,.4.7-.8,1.9-1.6,1.9-1.3-.5-1.4-1.2-1.4-2,0-.5.4-1,.8-1.2Z"/>
  <path class="st0" d="M180.3,872.9c-3,9-10.5,14.7-16.6,12.5-6.2-2.1-8.8-11.2-5.8-20.2,3-9,10.5-14.7,16.6-12.5,6.2,2.1,8.8,11.2,5.8,20.2Z"/>
  <path class="st4" d="M173.4,854.4l-1.9,1.4c-4.1,3-5.4,8.6-3.2,13.2v.2c2.7,5.3.4,11.6-5,14h0"/>
  <path class="st3" d="M175.4,854c0,.4-.2.7-.4,1-.4.6-.7.8-1.5.6-.8-.3-1.7-1.3-1.4-2,.8-.8,1.5-1.1,2.2-.8.6.2,1,.8,1,1.3Z"/>
  <path class="st3" d="M161.7,883c0-.5.5-.9.9-1.1.7-.3.8-.2,1.3-.2.8,0,1.3,1.6.9,2.3-1,1-1.7.7-2.4.3-.5-.3-.7-.8-.7-1.3Z"/>
  <path class="st0" d="M220,857.4c4.7,8.3,3.9,17.7-1.8,20.9-5.7,3.2-14.1-1-18.8-9.3-4.7-8.3-3.9-17.7,1.8-20.9,5.7-3.2,14.1,1,18.8,9.3Z"/>
  <path class="st4" d="M201.8,850.1l-.2,2.4c-.5,5.1,2.7,9.8,7.6,11.3h.2c5.6,1.7,8.8,7.7,7,13.3h0"/>
  <path class="st3" d="M202.8,848.3c.3.2.4.6.4.9.1.7.2,1.1-.5,1.5-.7.4-2,.4-2.4-.3,0-1.1.2-1.8.9-2.2.5-.3,1.2-.2,1.7.2Z"/>
  <path class="st3" d="M215.2,878.1c-.4-.4-.4-.9-.2-1.4.2-.8.3-.7.7-1.1.6-.6,2.1,0,2.3.9,0,1.4-.6,1.8-1.4,2-.5.1-1.1,0-1.4-.3Z"/>
  <path class="st0" d="M43.7,860c-6.5-7-8-16.3-3.2-20.7s13.9-2.4,20.4,4.6c6.5,7,8,16.3,3.2,20.7-4.7,4.5-13.9,2.4-20.4-4.6Z"/>
  <path class="st4" d="M63.1,862.8l-.3-2.4c-.7-5.1-4.9-8.9-10-9.2h-.3c-5.9-.3-10.3-5.4-9.9-11.2h0"/>
  <path class="st3" d="M62.6,864.8c-.3-.2-.5-.5-.6-.8-.3-.7-.4-1,.2-1.6.6-.6,1.9-.9,2.4-.3.3,1.1.3,1.8-.3,2.4-.5.4-1.1.5-1.7.2Z"/>
  <path class="st3" d="M43.5,838.7c.5.3.6.8.5,1.4,0,.8-.2.8-.4,1.2-.4.7-2,.4-2.4-.3-.4-1.4.1-1.9.8-2.3.5-.3,1-.2,1.5,0Z"/>
  <path class="st0" d="M318.2,699.8c4.7,8.3,3.9,17.7-1.8,20.9-5.7,3.2-14.1-1-18.8-9.3-4.7-8.3-3.9-17.7,1.8-20.9,5.7-3.2,14.1,1,18.8,9.3Z"/>
  <path class="st4" d="M300,692.4l-.2,2.4c-.5,5.1,2.7,9.8,7.6,11.3h.2c5.6,1.7,8.8,7.7,7,13.3h0"/>
  <path class="st3" d="M301,690.6c.3.2.4.6.4.9.1.7.2,1.1-.5,1.5-.7.4-2,.4-2.4-.3,0-1.1.2-1.8.9-2.2.5-.3,1.2-.2,1.7.2Z"/>
  <path class="st3" d="M313.4,720.5c-.4-.4-.4-.9-.2-1.4.2-.8.4-.7.7-1.1.6-.6,2.1,0,2.3.9,0,1.4-.6,1.8-1.4,2-.5.1-1.1,0-1.4-.3Z"/>
  <path class="st0" d="M32.3,808.7c-3.1,9-10.7,14.5-16.8,12.3-6.2-2.2-8.6-11.3-5.5-20.3,3.1-9,10.7-14.5,16.8-12.3,6.2,2.2,8.6,11.3,5.5,20.3Z"/>
  <path class="st4" d="M25.7,790.1l-1.9,1.4c-4.1,3-5.6,8.5-3.4,13.1v.2c2.6,5.3.2,11.6-5.2,13.9h0"/>
  <path class="st3" d="M27.8,789.7c0,.4-.2.7-.4,1-.4.6-.7.8-1.5.6-.8-.3-1.6-1.3-1.4-2.1.8-.8,1.5-1.1,2.3-.8.6.2,1,.8,1,1.4Z"/>
  <path class="st3" d="M13.6,818.6c0-.5.5-.9.9-1.1.7-.3.8-.2,1.3-.2.8,0,1.3,1.6.9,2.3-1,1-1.7.7-2.4.3-.5-.3-.7-.8-.7-1.3Z"/>
  <path class="st9" d="M440.3-.1v127c0,64.8-91.2,92.1-220.2,186.2-16.9,12.3-28.9,30.3-32.2,50.9-24.6,153,50.6,257.5,31.9,245.4-32.5-21-120,18.7-170.5,5-22.7-23.6,104.4-57.9,84.5-150.5C121.6,407,.3,281.4.3,208.9V-.1h440Z"/>
  <path class="st7" d="M324.2,173.6l-4.6,23.7-19.5-21.2,24-2.5Z"/>
  <path class="st7" d="M295.1,200l4.8-24,19.4,21.8-24.3,2.3Z"/>
  <path class="st7" d="M295.4,200.2l-3.6,3.3-3.4-22.2,7.1,18.9Z"/>
  <path class="st7" d="M295.4,200.2l-3.6,3.3,21.1,5.2-17.5-8.5Z"/>
  <path class="st7" d="M312.9,208.7l6.6-11.1,7.6-1.9-14.3,12.9Z"/>
  <path class="st7" d="M288.4,181.3l11.6-5.5,2.6-7.4-14.3,12.9Z"/>
  <path class="st7" d="M319.4,197.7l-6.7,11.1-17.4-8.6,24.1-2.5Z"/>
  <path class="st7" d="M300.1,176.1l-11.9,5.3,7.1,18.8,4.8-24.1Z"/>
  <path class="st7" d="M319.4,197.7l5-23.9,2.7,21.9-7.7,2Z"/>
  <path class="st7" d="M300.2,176.1l24.2-2.2-21.8-5.5-2.4,7.7Z"/>
  <path class="st6" d="M406.5,25.3l-5,35-30.4-33.2,35.4-1.8Z"/>
  <path class="st6" d="M365.5,62.5l5.4-35.5,30.4,34-35.7,1.5Z"/>
  <path class="st6" d="M365.9,62.9l-5.1,4.6-6.7-33.4,11.8,28.8Z"/>
  <path class="st6" d="M365.9,62.9l-5.1,4.6,31.5,9.5-26.4-14.1Z"/>
  <path class="st6" d="M392.4,76.9l8.9-16,11.2-2.2-20.1,18.2Z"/>
  <path class="st6" d="M354.1,34.1l16.8-7.3,3.3-10.9-20.1,18.2Z"/>
  <path class="st6" d="M401.2,61l-9,16.1-26.4-14.2,35.4-1.9Z"/>
  <path class="st6" d="M371.1,27.2l-17.2,7,11.9,28.7,5.2-35.7Z"/>
  <path class="st6" d="M401.2,61l5.6-35.3,5.7,32.9-11.3,2.3Z"/>
  <path class="st6" d="M371.1,27.2l35.7-1.5-32.7-9.8-3,11.3Z"/>
  <path class="st1" d="M6.5-6.2L71.3,27.1-3.6,67.2,6.5-6.2Z"/>
  <path class="st1" d="M61.6,102L-4,67.6,72.4,28.1l-10.9,73.9Z"/>
  <path class="st1" d="M62.3,101.3l6.9,13.5L3,106.5l59.4-5.2Z"/>
  <path class="st1" d="M62.3,101.3l6.9,13.5,30.2-58.1-37,44.7Z"/>
  <path class="st1" d="M99.4,56.7l-27.1-28.8V3.6c0,0,27.1,53.1,27.1,53.1Z"/>
  <path class="st1" d="M3,106.5l-7.5-39.1-19.5-14L3,106.5Z"/>
  <path class="st1" d="M72.4,28.1l27.2,29-37.1,44.5,10-73.5Z"/>
  <path class="st1" d="M-3.5,67.3l6.7,39.6,59.3-5.4L-3.5,67.3Z"/>
  <path class="st1" d="M72.4,28.1L7.4-6.7,72.3,3.5v24.6Z"/>
  <path class="st1" d="M-3.6,67.1L7.4-6.7l-31.4,60.2,20.4,13.6Z"/>
  <path class="st2" d="M111.4,231.9l21.3,29.7-42.4.6,21.1-30.3Z"/>
  <path class="st2" d="M111.4,292.7l-21.4-30.4h43s-21.6,30.4-21.6,30.4Z"/>
  <path class="st2" d="M111.9,292.6v7.6l-27.6-18.9,27.6,11.4Z"/>
  <path class="st2" d="M111.9,292.6v7.6l26.6-18.9-26.6,11.4Z"/>
  <path class="st2" d="M138.5,281.2l-5.5-19,5.5-10.8v29.8Z"/>
  <path class="st2" d="M84.3,281.2l5.5-19.1-5.5-10.7v29.8Z"/>
  <path class="st2" d="M133,262.3l5.5,19.1-26.6,11.2,21.1-30.4Z"/>
  <path class="st2" d="M90.3,262.3l-6,19.2,27.6,11.2-21.6-30.4Z"/>
  <path class="st2" d="M133,262.3l-21.1-30.4,26.6,19.5-5.5,10.9Z"/>
  <path class="st2" d="M90.3,262.2l21.6-30.3-27.6,19.6,6,10.7Z"/>
  <path class="st10" d="M199.3,96.8l7.6,43.4-47.5-24.3,39.9-19.1Z"/>
  <path class="st10" d="M166.5,160l-7.3-44.2,47.7,25.3-40.4,18.9Z"/>
  <path class="st10" d="M167.1,160.2l-4.1,7.9-20.4-35.9,24.5,28Z"/>
  <path class="st10" d="M167.1,160.2l-4.1,7.9,39.8-4.1-35.7-3.8Z"/>
  <path class="st10" d="M202.8,164l4.2-23,12-8-16.1,31Z"/>
  <path class="st10" d="M142.6,132.2l16.5-16.6-.3-14.4-16.1,31Z"/>
  <path class="st10" d="M206.9,141.1l-4.2,23.2-35.6-3.9,39.8-19.2Z"/>
  <path class="st10" d="M159.5,116l-17,16.4,24.6,27.9-7.6-44.3Z"/>
  <path class="st10" d="M206.9,141.1l-7-44,19,35.8-12.1,8.1Z"/>
  <path class="st10" d="M159.5,115.9l40.4-18.8-41.3,4.2.9,14.7Z"/>
</svg>