<?xml version="1.0" encoding="UTF-8"?>
<svg id="Layer_1" xmlns="http://www.w3.org/2000/svg" version="1.1" xmlns:xlink="http://www.w3.org/1999/xlink" viewBox="0 0 1242 882">
  <!-- Generator: Adobe Illustrator 29.3.1, SVG Export Plug-In . SVG Version: 2.1.0 Build 151)  -->
  <defs>
    <style>
      .st0 {
        fill: #5a3a32;
      }

      .st1 {
        fill: #938f9f;
        stroke-width: 2px;
      }

      .st1, .st2 {
        stroke: #fff;
      }

      .st3 {
        fill: #c58a7b;
      }

      .st4 {
        stroke: #c58a7b;
        stroke-width: 3px;
      }

      .st4, .st5 {
        fill: none;
      }

      .st6 {
        fill: #f0b470;
      }

      .st6, .st7 {
        stroke: #000;
      }

      .st8 {
        fill: #fff;
      }

      .st9 {
        fill: #9f5441;
      }

      .st2 {
        fill: #72908d;
      }

      .st10 {
        fill: #bc4749;
        fill-opacity: .9;
        stroke: #5a0000;
      }

      .st7 {
        fill: #6a6b3c;
      }

      .st11 {
        fill: #f3f3f3;
      }
    </style>
  </defs>
  <path class="st9" d="M1123.8,0s-26.9,52-113.2,84.7c-115.2,43.6-205.9,19-248,119.7-33.1,145.3-204.2,248.6-263,239-94.7-15.5-125.2,38.1-188.9,10.5-66.2-17.4-50.1-109.9-108.2-178.4C166.7,233.5,49.1,165.8,1,114.2V0h1122.7Z"/>
  <path class="st5" d="M1121.5.9s-26.9,51.9-113,84.5c-115,43.5-205.5,19-247.5,119.5-33,145-203.8,248.1-262.5,238.5-94.5-15.5-125,38-188.5,10.5-66-17.4-50-109.7-108-178C166.4,233.9,49,166.4,1,114.9V.9h1120.5Z"/>
  <path class="st7" d="M546.6,218l-8.4,43.3-36-38.8,44.4-4.5Z"/>
  <path class="st7" d="M493,266.4l9-44,35.9,39.9-44.8,4.1Z"/>
  <path class="st7" d="M493.5,266.7l-6.7,6-6.3-40.6,13,34.6Z"/>
  <path class="st7" d="M493.5,266.7l-6.7,6,38.9,9.6-32.2-15.6Z"/>
  <path class="st7" d="M525.7,282.4l12.2-20.2,14.1-3.5-26.3,23.7Z"/>
  <path class="st7" d="M480.5,232.1l21.5-10.1,4.8-13.6-26.3,23.7Z"/>
  <path class="st7" d="M537.8,262.2l-12.3,20.3-32.1-15.7,44.4-4.6Z"/>
  <path class="st7" d="M502.2,222.6l-21.9,9.7,13.1,34.5,8.8-44.2Z"/>
  <path class="st7" d="M537.8,262.2l9.2-43.7,5,40.1-14.3,3.6Z"/>
  <path class="st7" d="M502.3,222.6l44.8-4.1-40.3-10-4.4,14.1Z"/>
  <path class="st6" d="M736.6,6.2l-9.2,64.1-56.1-60.8,65.3-3.3Z"/>
  <path class="st6" d="M660.9,74.3l9.9-65.1,56,62.3-65.9,2.8Z"/>
  <path class="st6" d="M661.7,74.9l-9.4,8.5-12.5-61.2,21.9,52.7Z"/>
  <path class="st6" d="M661.7,74.9l-9.4,8.5,58.3,17.3-48.8-25.8Z"/>
  <path class="st6" d="M710.6,100.7l16.5-29.3,20.6-4.1-37.1,33.4Z"/>
  <path class="st6" d="M639.9,22.2l31-13.4,6.1-20-37.1,33.4Z"/>
  <path class="st6" d="M726.9,71.5l-16.6,29.5-48.7-25.9,65.3-3.5Z"/>
  <path class="st6" d="M671.2,9.7l-31.7,12.8,22,52.6,9.6-65.4Z"/>
  <path class="st6" d="M726.9,71.5l10.3-64.6,10.5,60.3-20.8,4.3Z"/>
  <path class="st6" d="M671.4,9.6l65.9-2.7-60.4-18-5.5,20.7Z"/>
  <path class="st1" d="M-31-43.5L88.5,17.4-49.8,90.9-31-43.5Z"/>
  <path class="st1" d="M70.6,154.7l-121.1-63L90.7,19.4l-20.1,135.3Z"/>
  <path class="st1" d="M72.1,153.5l12.7,24.7-122.3-15.2,109.6-9.5Z"/>
  <path class="st1" d="M72.1,153.5l12.7,24.7,55.7-106.5-68.4,81.8Z"/>
  <path class="st1" d="M140.4,71.7l-49.9-52.8V-25.5c.1,0,49.9,97.2,49.9,97.2Z"/>
  <path class="st1" d="M-37.5,162.9l-13.8-71.6-36-25.6,49.8,97.2Z"/>
  <path class="st1" d="M90.6,19.3l50.2,53.1-68.5,81.4L90.6,19.3Z"/>
  <path class="st1" d="M-49.5,91.2l12.3,72.5,109.4-9.8-121.7-62.7Z"/>
  <path class="st1" d="M90.6,19.3L-29.4-44.3l119.9,18.6V19.3Z"/>
  <path class="st1" d="M-49.6,90.8L-29.4-44.3l-57.9,110.3,37.6,24.8Z"/>
  <path class="st2" d="M349,263.9l39.3,54.4-78.3,1.1,39-55.5Z"/>
  <path class="st2" d="M349,375.3l-39.5-55.7h79.3s-39.8,55.7-39.8,55.7Z"/>
  <path class="st2" d="M349.9,375.1v13.9l-50.9-34.7,50.9,20.8Z"/>
  <path class="st2" d="M349.9,375.1v13.9l49.1-34.7-49.1,20.8Z"/>
  <path class="st2" d="M399,354.3l-10.2-34.9,10.2-19.8v54.6Z"/>
  <path class="st2" d="M299,354.3l10.2-35-10.2-19.6v54.6Z"/>
  <path class="st2" d="M388.8,319.6l10.2,35.1-49.1,20.6,38.9-55.7Z"/>
  <path class="st2" d="M310.1,319.6l-11.1,35.1,50.9,20.6-39.9-55.7Z"/>
  <path class="st2" d="M388.8,319.6l-38.9-55.7,49.1,35.6-10.2,20Z"/>
  <path class="st2" d="M310.1,319.4l39.9-55.5-50.9,35.9,11.1,19.6Z"/>
  <path class="st10" d="M411.7,63.1l14,79.4-87.7-44.5,73.6-35Z"/>
  <path class="st10" d="M351,178.8l-13.6-80.9,88.1,46.3-74.6,34.6Z"/>
  <path class="st10" d="M352.2,179.1l-7.6,14.4-37.7-65.7,45.3,51.3Z"/>
  <path class="st10" d="M352.2,179.1l-7.6,14.4,73.5-7.4-65.9-7Z"/>
  <path class="st10" d="M418.1,186.1l7.7-42.2,22.1-14.6-29.8,56.8Z"/>
  <path class="st10" d="M306.9,127.8l30.4-30.5-.6-26.3-29.8,56.8Z"/>
  <path class="st10" d="M425.6,144.1l-7.8,42.4-65.8-7.2,73.6-35.2Z"/>
  <path class="st10" d="M338.1,98.2l-31.4,30,45.4,51.1-14-81.1Z"/>
  <path class="st10" d="M425.6,144.1l-12.9-80.5,35.1,65.6-22.3,14.9Z"/>
  <path class="st10" d="M338.2,98.1l74.6-34.5-76.2,7.6,1.6,26.8Z"/>
  <path class="st8" d="M177.6,462.9l186.1,104.9-139.4,196.3-142.6-80.4,95.8-220.9Z"/>
  <ellipse class="st11" cx="273.6" cy="510.7" rx="41.8" ry="114.9" transform="translate(-305.7 498.3) rotate(-60.6)"/>
  <ellipse class="st8" cx="274.3" cy="509.7" rx="36.7" ry="109" transform="translate(-304.4 498.4) rotate(-60.6)"/>
  <ellipse class="st9" cx="272.3" cy="513.6" rx="30.3" ry="89.8" transform="translate(-308.8 498.6) rotate(-60.6)"/>
  <ellipse class="st5" cx="272.3" cy="513.6" rx="30.3" ry="89.8" transform="translate(-308.8 498.6) rotate(-60.6)"/>
  <ellipse class="st8" cx="154.3" cy="722.8" rx="27.4" ry="81.3" transform="translate(-551.1 502.3) rotate(-60.6)"/>
  <path class="st0" d="M278.4,745.5c-9-3.4-14.5-11.2-12.2-17.4,2.3-6.2,11.6-8.5,20.6-5.1,9.1,3.4,14.5,11.2,12.2,17.4-2.3,6.2-11.6,8.5-20.6,5.1Z"/>
  <path class="st4" d="M297.3,739.3l-1.4-2c-2.9-4.3-8.5-5.9-13.2-3.8h-.2c-5.4,2.5-11.8,0-14-5.6h0"/>
  <path class="st3" d="M297.7,741.3c-.4,0-.7-.2-.9-.4-.6-.5-.8-.7-.6-1.5.3-.8,1.3-1.6,2.1-1.3.8.8,1.1,1.5.8,2.3-.2.6-.8,1-1.4,1Z"/>
  <path class="st3" d="M268.7,726.3c.5,0,.9.5,1.1,1,.3.7.2.8.2,1.3,0,.8-1.7,1.3-2.4.8-1-1.1-.7-1.7-.2-2.4.3-.5.8-.7,1.3-.7Z"/>
  <path class="st0" d="M181,768.4c-7.2,6.5-16.6,7.7-21,2.8-4.4-4.9-2.2-14.2,5-20.6,7.2-6.5,16.6-7.7,21-2.8,4.4,4.9,2.2,14.2-5,20.6Z"/>
  <path class="st4" d="M184.2,748.7l-2.4.3c-5.1.6-9.1,4.8-9.4,10v.3c-.4,5.9-5.6,10.4-11.5,9.8h0"/>
  <path class="st3" d="M186.2,749.3c-.2.3-.5.5-.8.6-.7.3-1,.4-1.6-.2-.6-.6-.8-1.9-.2-2.5,1.1-.3,1.9-.2,2.4.4.4.5.5,1.2.2,1.7Z"/>
  <path class="st3" d="M159.5,768.1c.3-.5.8-.6,1.4-.5.8,0,.8.2,1.2.4.7.4.4,2.1-.4,2.5-1.4.4-1.9-.2-2.3-.9-.3-.5-.2-1,0-1.5Z"/>
  <path class="st0" d="M224,774.5c0,9.7-5.4,17.5-12,17.5s-12-7.8-12-17.5,5.4-17.5,12-17.5,12,7.8,12,17.5Z"/>
  <path class="st4" d="M211.5,759l-1.4,2c-3,4.2-2.5,10,1.1,13.7l.2.2c4.2,4.3,4,11.1-.4,15.1h0"/>
  <path class="st3" d="M213.3,757.9c.1.3,0,.7,0,1-.2.7-.4,1-1.2,1s-2-.7-2-1.5c.5-1,1.1-1.6,1.9-1.6s1.2.4,1.4,1Z"/>
  <path class="st3" d="M209.4,790.3c-.2-.5.2-1,.5-1.4.6-.6.7-.5,1.1-.6.8-.2,1.8,1.1,1.6,1.9-.7,1.3-1.4,1.3-2.2,1.1-.5-.1-.9-.5-1.1-1Z"/>
  <path class="st0" d="M66.3,689.3c-2.3-9.4,1.1-18.3,7.5-19.8,6.4-1.6,13.5,4.8,15.8,14.2,2.3,9.4-1.1,18.3-7.5,19.8-6.4,1.6-13.5-4.8-15.8-14.2Z"/>
  <path class="st4" d="M82.2,701.4l.9-2.2c1.9-4.8,0-10.3-4.3-13.1h-.2c-5-3.3-6.5-10-3.2-14.9h0"/>
  <path class="st3" d="M80.7,702.8c-.2-.3-.2-.7-.2-1,0-.7.1-1.1.9-1.3.8-.2,2.1.2,2.3,1-.2,1.1-.7,1.8-1.5,2-.6.2-1.3-.1-1.6-.6Z"/>
  <path class="st3" d="M76.8,670.4c.3.4,0,1-.2,1.5-.4.7-.5.6-1,.9-.7.4-2-.7-2-1.5.3-1.4,1.1-1.6,1.9-1.6.5,0,1,.3,1.3.7Z"/>
  <path class="st0" d="M390,684.5c0,9.7-5.4,17.5-12,17.5s-12-7.8-12-17.5,5.4-17.5,12-17.5,12,7.8,12,17.5Z"/>
  <path class="st4" d="M377.5,669l-1.4,2c-3,4.2-2.5,10,1.1,13.7l.2.2c4.2,4.3,4,11.1-.4,15.1h0"/>
  <path class="st3" d="M379.3,667.9c.1.3,0,.7,0,1-.2.7-.4,1-1.2,1s-2-.7-2-1.5c.5-1,1.1-1.6,1.9-1.6s1.2.4,1.4,1Z"/>
  <path class="st3" d="M375.4,700.3c-.2-.5.2-1,.5-1.4.6-.6.7-.5,1.1-.6.8-.2,1.8,1.1,1.6,1.9-.7,1.3-1.4,1.3-2.2,1.1-.5-.1-.9-.5-1.1-1Z"/>
  <path class="st0" d="M82.9,630.5c-7.3,6.4-16.7,7.5-21.1,2.5-4.4-5-2-14.2,5.3-20.6,7.3-6.4,16.7-7.5,21.1-2.5,4.4,5,2,14.2-5.3,20.6Z"/>
  <path class="st4" d="M86.3,610.9l-2.4.3c-5.2.6-9.2,4.7-9.6,9.9v.3c-.5,5.9-5.8,10.3-11.7,9.7h0"/>
  <path class="st3" d="M88.3,611.5c-.2.3-.5.5-.8.6-.7.3-1,.4-1.6-.2-.5-.6-.8-1.9-.2-2.5,1.1-.3,1.9-.2,2.4.4.4.5.5,1.2.2,1.7Z"/>
  <path class="st3" d="M61.4,629.9c.3-.4.9-.5,1.4-.5.8,0,.8.2,1.2.5.7.4.3,2.1-.4,2.5-1.4.3-1.9-.2-2.3-.9-.3-.5-.2-1,0-1.5Z"/>
</svg>