<?xml version="1.0" encoding="UTF-8"?>
<svg id="Layer_1" xmlns="http://www.w3.org/2000/svg" version="1.1" viewBox="0 0 40.3 37.1">
  <!-- Generator: Adobe Illustrator 29.3.1, SVG Export Plug-In . SVG Version: 2.1.0 Build 151)  -->
  <path d="M40.2,13.8c0-.4.1-2,.1-4.2,0-1.6-.3-1.8-.4-2.7-.4-2-1.7-4.1-3.4-5.6-.5-.4-2.7-1.7-4.7-1-1.1.4-1.1.9-2.4,1.3-1.4.4-2-.1-3.4.4-.6.2-1.7.7-1.7,1.1,0,.4,1.1.6,3.3,1.1,1,.2,1.4.2,1.9.6,0,0,0,0,0,0,0,0,0,0,0,0,1.2,2.3,1.3,2.6.7,3.1-4.8,3.9-3.9,2.5-12.6,10.3-7.3,6.4-14.8,7.6-15.6,10.8,0,.1-.2.6,0,.6.2,0,.6-.3.7-.2,0,0,0,.2.2.3.2.4,2.1-.6,2.2-.5.2.5-5.4,2.9-5,4.1.1.4,1.8-.2,2,0,.3.3-.7.9-.5,1.1.3.3,1.5,0,4.4-1.2,5.1-2.4,5.6-2.9,7.9-3.8,1.1-.4,1.5,0,3.6-.4,2.3-.4,2.7-.7,3.8-.8,1.3,0,1.8.4,3.1.8,0,0,0,0,0,0,0,0,0,.1,0,.2,0,.9,0,2.1,0,3,0,.2,0,.4.2.6.7.6,2.5,2.3,2.4,2.6-.1.3-1.3-.2-2.4.4-.8.5-1.1,1.3-1,1.5.2.2,1.1-1,2.6-1.1,1.4-.2,1.5.8,3.2.7,1.6,0,2.2-.8,3.6-.5,1.2.2,2,.9,2.1.8,0-.1-.4-.7-1-1.1-.2-.1-.3-.1-.3-.2,0-.3,1.6-.6,3.2-.3,1.1.2,1.8.7,1.9.6,0-.2-1.7-1.6-2.6-1.6,0,0-.4,0-.5-.1,0-.1,0-.2,0-.3.2-.5,1.3-.8,2-.5.4.2.5.5.6.5,0,0,0-.7-.5-1-.6-.6-1.8-.3-2.5,0-.7.3-.9.7-1.7.8-.5,0-.8,0-.9,0-1-.6-2-2.1-2.2-2.4,0,0,0-.1,0-.2,0-2.2,0-1.5,0-2.3,0,0,0-.1,0-.2,7.2-2.9,9.8-12.1,10-14.7ZM30.6,34s0,0,0,.1c-.2.2-.7.1-1,.2-.5,0-.9.2-1.2-.1-.6-.7-1.4-1.4-1.9-2.2,0-.3,0-.6,0-.9,0-.3,0-.6,0-.8h0c.2-.1,1-.5,1.3-.5.1,0,0,.6.1.7,0,.4,0,.8.1,1.1.6.7,2.1,2,2.5,2.6Z"/>
</svg>